<svg id="Camada_1" data-name="Camada 1" xmlns="http://www.w3.org/2000/svg" viewBox="0 0 768 278.96"><defs><style>.cls-1{fill:#fffefe;}.cls-2{fill:#c01b25;}.cls-3{fill:#ecbbbd;}</style></defs><path class="cls-1" d="M813.27,277.44q0,65,0,130c0,1.47-.29,1.76-1.77,1.76q-382.23-.06-764.47,0c-1.47,0-1.76-.29-1.76-1.76q.07-65.62,0-131.26c.11.07.29.11.34.21C49.47,284.67,56,290,64.4,293a44.85,44.85,0,0,0,19.47,2.42c7.37-.67,14-3.42,19-9,11-12.38,10.66-26.45-1.47-37.87-4.42-4.16-9.9-6.17-15.78-7.25-5.29-1-10.71-1.07-15.9-2.56-4.89-1.4-8.4-4.33-9.69-9.39-1.76-6.91,3.43-14.48,11.11-16.41a24.66,24.66,0,0,1,26.81,10.58,7,7,0,0,0,9.26,2.42,6.81,6.81,0,0,0,2.93-9,26.4,26.4,0,0,0-7.75-9.9c-11.18-8.76-23.75-10.68-37.13-6.73a27.86,27.86,0,0,0-19.43,24.65c-.69,12.53,7.28,23.48,19.76,27.13,5,1.48,10.27,1.9,15.45,2.6,6,.8,11.26,2.76,14.41,8.43a9.43,9.43,0,0,1,.79,8A14.57,14.57,0,0,1,86,280.91a26.76,26.76,0,0,1-12.36.25C67,280,61.7,277,58.29,270.87c-2.53-4.53-9.33-4.13-11.91.49-.33.59-.28,1.42-1,1.78q0-70.59,0-141.16c0-1.48.29-1.77,1.76-1.77q140.33.07,280.65,0c-.26.73-.86.76-1.53.89-6,1.24-10.22,4.92-13.55,9.8a2.13,2.13,0,0,0,.62,3.06,2.23,2.23,0,0,0,3.26-.36c.44-.47.8-1,1.2-1.51,7.41-9.18,19-9.32,26.37-.12,6.1,7.62,7.46,16.45,5.53,25.82-1.34,6.53-4.35,12.2-10.08,15.94a9.16,9.16,0,0,0-4.48,8.84c.75,17.62,1.38,35.25,2.05,52.88.48,12.54.94,25.08,1.45,37.62a8.16,8.16,0,0,1-1.95,6.17,7.31,7.31,0,0,1-8.28,1.82,7.22,7.22,0,0,1-4.9-7.34c.25-8.45.59-16.91.91-25.36q1.26-33.21,2.55-66.42a8.3,8.3,0,0,0-4.13-7.95,21.42,21.42,0,0,1-7.88-8.91,31.93,31.93,0,0,1-2.51-21.57c.37-1.7.13-3.13-1.73-3.55s-2.69.88-3,2.52a36.2,36.2,0,0,0-.84,10.26c.72,10,4.17,18.75,12.65,24.78a5.34,5.34,0,0,1,2.6,5.14c-1,24.72-1.9,49.44-2.83,74.16-.21,5.66-.49,11.32-.6,17a12.08,12.08,0,0,0,7.65,11.66A12.48,12.48,0,0,0,340,292.82c3.05-3.13,3.55-7,3.38-11.15-1.18-29.8-2.27-59.61-3.44-89.42a4.42,4.42,0,0,1,2.31-4.43,21.06,21.06,0,0,0,6.36-6c7.46-10.72,8.65-22.3,4.12-34.37-3.09-8.25-8.61-14.32-17.54-16.6-.3-.08-.51-.22-.54-.56H371.2c-.13.17-.22.41-.38.48-3.52,1.47-4.78,4.19-4.74,7.88.09,8.1,0,16.21.05,24.31.11,9.06,4.08,16,12,20.5a5,5,0,0,1,2.83,5.17q-1.91,47.08-3.64,94.18c-.3,7.85,5,13.6,12.53,13.61s12.57-5.48,12.28-13.45q-.31-8.71-.65-17.42c-.16-4.16-.35-8.31-.49-12.47-.06-1.69-.82-2.88-2.55-2.8s-2.39,1.36-2.29,3c0,.64.05,1.29.08,1.93q.54,14.19,1.08,28.38c.13,3.42-1.26,6-4.41,7.46s-5.77.63-8.2-1.44c-2.08-1.77-2.65-4.09-2.54-6.77q1.85-47.19,3.64-94.38c.16-4.19-1.32-7.11-5.08-9.11-5.42-2.87-8.93-7.47-9.43-13.57-.77-9.44-.18-18.92-.27-28.39A1.47,1.47,0,0,1,371,137a2.13,2.13,0,0,1,2.17-1.73,2,2,0,0,1,2,1.69,8.78,8.78,0,0,1,.13,1.92q0,9.9,0,19.8a8.36,8.36,0,0,0,.43,3.17,6.42,6.42,0,0,0,6.88,4,6.32,6.32,0,0,0,5.39-6.31c.06-7,0-14.06,0-21.09a11,11,0,0,1,.06-1.72,1.61,1.61,0,0,1,3.2-.07,9.57,9.57,0,0,1,.09,1.93c0,6.89,0,13.77,0,20.66a6.25,6.25,0,0,0,2.42,5.26,5.9,5.9,0,0,0,6.47.83,6.34,6.34,0,0,0,3.83-6.2q0-10.44,0-20.87c0-1.59.35-3,2.23-3,1.72,0,2.11,1.37,2.1,2.91,0,8.46.09,16.93-.06,25.39a17.37,17.37,0,0,1-9.59,15.74c-3.71,2-5.33,4.84-5.15,9.06.68,16,1.23,32,1.84,47.95.06,1.72.08,3.45.25,5.16a2.27,2.27,0,0,0,2.43,2.24,2.33,2.33,0,0,0,2.32-2.37,8,8,0,0,0,0-1.29c-.63-17.2-1.24-34.4-2-51.6a4.77,4.77,0,0,1,2.76-5c8.26-4.61,12-12.07,12.36-21.24.28-8,.06-15.92,0-23.89a7.94,7.94,0,0,0-.44-2.69c-1-2.73-3-4.21-5.43-5.39q201.78,0,403.55,0c1.61,0,2,.37,2,2q-.09,54.33,0,108.67c-2.06-6.85-7.28-10.52-13.45-13.07-9.66-4-19-3.66-27.72,2.63-10.36,7.5-11.82,26.07,2.64,33.56a35.87,35.87,0,0,0,11.19,3.61c3.24.49,6.57.69,9.56,2.26,4,2.11,4.79,6.25,1.83,9.7a7.57,7.57,0,0,1-4.38,2.56c-6.17,1.18-11.51-.18-15.55-5.3a15.61,15.61,0,0,0-1.4-1.63,6.86,6.86,0,0,0-8.87-.48,6.64,6.64,0,0,0-2.28,8.37,19.69,19.69,0,0,0,8.34,9,31.76,31.76,0,0,0,19.42,4.18c10.28-1,17.08-6.57,19.72-15.85C812.6,279.4,812.45,278.26,813.27,277.44ZM49.18,323.82l-.06.05a.33.33,0,0,0-.38.36l-.07.07a.33.33,0,0,0-.36.38l-.05.06-.35.44h0a1,1,0,0,0-.83.59,7,7,0,0,0,2.68,9.15,12.86,12.86,0,0,0,6.62,1.43q364.38,0,728.76,0c4,0,7.9.13,11.83-.05,2.07-.09,4.33-.21,5.58-2.4l0,0a.35.35,0,0,0,.39-.38l0,0a.37.37,0,0,0,.39-.41l0,0a5.11,5.11,0,0,0,1.69-5.46c-1.42-4-3.71-5.73-8-5.73q-21.9,0-43.79,0c-.7,0-1.45-.21-2.06.34h-1.68c-.47-.48-1.07-.34-1.63-.34q-8.07,0-16.13,0c-.56,0-1.16-.14-1.63.34h-.85c-.61-.57-1.36-.33-2.05-.33-4.16,0-8.32,0-12.48,0-.9,0-1.87-.32-2.7.33h-1.7c-.69-.6-1.52-.33-2.28-.33q-33.24,0-66.49,0c-.76,0-1.59-.27-2.27.33h-.85c-3.6-.79-7.25-.22-10.87-.31-1.68,0-3.42-.43-5.07.31h-.85c-.68-.6-1.51-.33-2.27-.33q-36.69,0-73.38,0c-.76,0-1.59-.27-2.27.33h-1.71c-.54-.53-1.22-.34-1.84-.34q-17.54,0-35.07,0c-.63,0-1.31-.18-1.84.34h-1.28c-.54-.53-1.22-.34-1.84-.34q-20.34,0-40.67,0c-.63,0-1.3-.18-1.84.34h-.85c-.61-.56-1.36-.33-2.05-.33-3.88,0-7.75,0-11.62,0-1,0-2.15-.36-3.13.32h-1.71a3,3,0,0,0-3,0h-.85c-.61-.57-1.37-.33-2.06-.33q-7,0-14,0c-.69,0-1.44-.23-2.05.33h-1.28c-.54-.53-1.22-.34-1.84-.34q-15.6,0-31.2,0c-.62,0-1.3-.19-1.84.34h-.85a2.32,2.32,0,0,0-2.6,0h-3c-.46-.46-1.06-.34-1.61-.34q-7.89,0-15.76,0c-.55,0-1.15-.13-1.61.34h-1.71c-.61-.56-1.36-.33-2.05-.33q-28.95,0-57.89,0c-.69,0-1.44-.22-2.05.34h-.83c-3.13-.77-6.31-.24-9.46-.31-1.73,0-3.51-.41-5.21.31h-.85c-.61-.57-1.36-.33-2-.33-4.45,0-8.89,0-13.34,0-.76,0-1.59-.27-2.27.33h-.85a.78.78,0,0,0-1.3,0h-2.14a1.2,1.2,0,0,0-1.74,0h-.84c-.26-.11-.51-.32-.77-.32q-9.78,0-19.57,0c-.26,0-.51.21-.77.32h-.85a1.72,1.72,0,0,0-2.18,0h-1.69c-.39-.42-.92-.34-1.41-.34q-10.86,0-21.73,0c-.49,0-1-.08-1.41.34h-2.14a5.76,5.76,0,0,0-4.32,0h-.84a11.26,11.26,0,0,0-6,0h-1.71c-.68-.6-1.51-.33-2.27-.33q-35.4,0-70.8,0c-.76,0-1.59-.27-2.27.33H108.2c-.54-.53-1.22-.34-1.84-.34q-19.26,0-38.52,0c-.62,0-1.3-.19-1.84.34H64.72a12.67,12.67,0,0,0-6.47,0H57c-2.28-.56-4.5-.75-6.5.84l-.06,0a.63.63,0,0,0-.78.46h0Zm382.72-54.3c0,7.78-.07,14.09,0,20.4a6.94,6.94,0,0,0,13.88.23c.12-1.93.05-3.87.05-5.81,0-10.33-.19-20.66.15-31a14,14,0,0,1,14.61-13.56c7.94.25,13.83,6.4,13.89,14.56,0,4.73,0,9.47,0,14.2,0,7,0,14.06,0,21.09a7.07,7.07,0,0,0,6,7.09,6.94,6.94,0,0,0,7.59-4.66,11.06,11.06,0,0,0,.38-3.62c0-11.12,0-22.24,0-33.36,0-5.21,1.72-9.58,6.08-12.61a13.84,13.84,0,0,1,14.86-1.13c5.38,2.68,7.91,7.29,8,13.25,0,7.6,0,15.21,0,22.81,0,4.09-.05,8.18,0,12.27a6.87,6.87,0,0,0,4.5,6.68c4.73,1.74,9.42-1.74,9.43-7.09,0-11.69,0-23.38,0-35.07a28.32,28.32,0,0,0-48.19-20.27c-1.22,1.22-1.74,1.33-3.07.06-8.23-7.89-18-10.27-28.77-6.67s-17.34,11.44-19,22.81C431.24,257,432.14,264,431.9,269.52ZM554.74,268h47.71c5.19,0,7.92-2.85,7.78-8.06-.48-18.23-12.75-31.84-30.88-34.23a35.48,35.48,0,0,0-30.52,59.23c9.64,10.29,21.68,13,35.17,10.77a30.54,30.54,0,0,0,13.59-6.12c3.32-2.55,4-6.46,1.82-9.5-2.36-3.34-5.84-4-9.6-1.75a28.48,28.48,0,0,1-13.64,4.08C566.52,282.82,557.58,276.92,554.74,268Zm-434.26-7.08a35.4,35.4,0,1,0,35.31-35.53A35.52,35.52,0,0,0,120.48,260.89Zm498,11.4c0,6.26,0,11.42,0,16.59,0,3.25,1.32,5.72,4.37,7,4.68,1.94,9.55-1.52,9.58-6.82.06-9.6-.08-19.21,0-28.82a21.38,21.38,0,0,1,27.71-19.92c9.25,2.92,15,10.93,15.1,21.19.07,9.17,0,18.35,0,27.53,0,4.38,3,7.4,7,7.34s6.9-3.13,6.93-7.47.07-8.6,0-12.91c-.12-6.66.44-13.33-.36-20-2-16.74-16.77-30.18-33.62-30.63-17.79-.48-33.29,11.91-36.19,28.9C618,260.63,618.77,267,618.52,272.29Zm136.21-19.86c0-7.19,0-13.07,0-19,0-4.55-2.81-7.66-6.89-7.68s-7.05,3-7.06,7.72c0,10.82,0,21.65,0,32.48,0,1.14,0,2.29-.16,3.43a14.58,14.58,0,0,1-18.28,12.46c-6.74-1.84-10.83-7.4-10.87-14.94-.05-11,0-22.08,0-33.12a8.51,8.51,0,0,0-.91-4.57,7.1,7.1,0,0,0-7.77-3.26,6.87,6.87,0,0,0-5.28,7c0,11.33,0,22.65,0,34a37.3,37.3,0,0,0,.43,5.78c2.05,13.45,14.34,23.71,28.36,23.66s26.21-10.51,28.06-24C755.28,265.32,754.44,258.2,754.73,252.43ZM219.87,265.34c0-8,0-16.07,0-24.1,0-1.49.37-2,1.91-2,3.44.11,6.88.1,10.33,0,4.36-.12,7.36-3.09,7.3-7.09s-3.17-6.81-7.56-6.85c-3.37,0-6.75-.09-10.11,0-1.6.05-1.88-.48-1.75-2,.78-9.24,5.34-15.67,14-19.14,3.92-1.58,5.73-5.3,4.38-9s-5.15-5.46-9.28-4A34.9,34.9,0,0,0,206,223c-.07,2.06-.72,2.49-2.55,2.35a41.73,41.73,0,0,0-5.81,0,6.94,6.94,0,0,0-.1,13.83c1.78.15,3.58.09,5.37.09,3,0,3,0,3,2.9q0,23.23,0,46.48c0,3.53,1.6,6.1,4.41,7.2,4.72,1.85,9.47-1.52,9.53-6.89C219.92,281.12,219.87,273.23,219.87,265.34Zm58.35,0c0-8,0-15.92,0-23.87,0-1.45.41-1.83,1.8-1.78,2.86.09,5.74.11,8.6,0a6.95,6.95,0,1,0-.3-13.89c-2.51-.05-5-.15-7.53,0-2,.14-2.64-.31-2.6-2.48.15-8.6.09-17.21,0-25.81a7,7,0,0,0-13.54-2.48,10.25,10.25,0,0,0-.41,3.61c0,8.38-.05,16.77,0,25.16,0,1.63-.43,2.08-2,2-2.58-.14-5.16-.06-7.75,0-4.19,0-7.25,2.93-7.29,6.85a7,7,0,0,0,7.07,7.09c2.58.07,5.17.13,7.74,0,1.81-.11,2.27.48,2.26,2.26-.07,15.34,0,30.68,0,46a10.79,10.79,0,0,0,.37,3.62,7,7,0,0,0,13.57-2.37C278.25,281.29,278.22,273.34,278.22,265.38ZM582.54,389.07c0,1.39,0,2.39,0,3.39a9.88,9.88,0,0,1-10.35,9.77,9.66,9.66,0,0,1-8.31-5.26c-1.51-2.58-4.52-2.76-5.85-.43-.78,1.37-.35,2.59.34,3.84A16.35,16.35,0,0,0,589,393.05c.14-5.87.13-11.75,0-17.63a16.34,16.34,0,1,0-21.68,16C572.61,393.27,577.57,392.33,582.54,389.07ZM466.76,369.46c0,6.38,0,12.76,0,19.13,0,2.31,1.16,3.73,3.26,3.72,4.51,0,9,.38,13.52-.35a22.72,22.72,0,0,0,18.82-21.74,22.44,22.44,0,0,0-16.77-22.67c-4.8-1.26-9.69-.71-14.54-.81-3.17-.06-4.29,1.1-4.29,4.23Q466.75,360.21,466.76,369.46Zm-396.42-22c-.72,0-1.58,0-2.44.12-6.71.61-11.63,5.41-12.14,11.83-.48,6.09,3.68,11.39,10.29,12.88,2.58.58,5.25.74,7.85,1.26,3.29.67,5.77,3.33,5.67,5.88-.11,3.09-2.9,5.8-6.48,6.07-4.74.35-9-.45-11.73-5a2.78,2.78,0,0,0-4-.83,2.93,2.93,0,0,0-1.37,4,10.12,10.12,0,0,0,2,3c4.45,4.69,10.14,5.77,16.19,5.11A13.12,13.12,0,0,0,86,379.5c.18-5.55-4.43-10.82-10.77-12.17-2.44-.52-5-.73-7.41-1.23-3.52-.72-5.69-3.12-5.65-6.06a6.67,6.67,0,0,1,6-6.34c4.75-.45,9.2.16,12,4.86a3,3,0,0,0,4.28,1.16,3.14,3.14,0,0,0,1.23-4.28A10.86,10.86,0,0,0,83.12,352C79.57,348.59,75.18,347.57,70.34,347.44Zm44.59,32.09a7.72,7.72,0,0,1,.81-.09c6.88,0,13.76,0,20.64,0,2.78,0,4-1.25,3.87-3.95a16,16,0,0,0-14.45-15.77,16.25,16.25,0,0,0-17.39,11.69,16,16,0,0,0,8.67,19.37,16.7,16.7,0,0,0,17-1.28c1.81-1.21,2.23-2.94,1.32-4.44a3.14,3.14,0,0,0-4.47-1,15.61,15.61,0,0,1-4.39,1.67C121.31,386.76,116.46,384.2,114.93,379.53Zm596.24,9.88a7.49,7.49,0,0,1,.42.72c.74,1.62,1.94,2.54,3.75,2.08s2.39-1.84,2.38-3.61c0-4.3.15-8.61-.07-12.89-.36-6.79-3.49-12-10-14.48s-12.5-1.27-17.42,3.63-6.09,10.9-3.72,17.42C690.05,391.9,702.83,395.41,711.17,389.41Zm-415.8,3.41c0-.12,0-.25.05-.26.76-.19,1.51-.38,2.27-.54a15.39,15.39,0,0,0,9.76-6.51c1.35-1.93,1.2-3.84-.3-5s-3.41-.75-4.95,1.24c-.22.28-.44.57-.68.83A9.89,9.89,0,0,1,285.1,372a9.91,9.91,0,0,1,11.74-5.58,10.23,10.23,0,0,1,5.84,4.44c1.21,1.79,3.12,2.2,4.64,1.16s1.83-2.88.72-4.74a11.35,11.35,0,0,0-.85-1.24,16.31,16.31,0,0,0-29.32,10,16.08,16.08,0,0,0,11.51,15.44c1.9.55,2.78,1,2.13,3.22-.51,1.72.6,2.64,2.3,2.09,1.07-.33,2-.51,2.65.54a1.44,1.44,0,0,1-.24,2c-1,.9-1.83.45-2.65-.27a2,2,0,0,0-.35-.25,1.67,1.67,0,0,0-2.06,2.62,5.15,5.15,0,0,0,5.54,1.33,4.49,4.49,0,0,0,3.21-4.37A4.84,4.84,0,0,0,297,393.6C296.44,393.34,295.68,393.49,295.37,392.82Zm54.06-33.18a16.36,16.36,0,1,0,16.17,16.58A16.34,16.34,0,0,0,349.43,359.64ZM782.8,392.35c6.64,0,10.81-3.42,11.49-8.64.61-4.59-3-9.06-8.4-10.35-1.52-.37-3.1-.53-4.64-.85s-2.8-.78-2.91-2.62a3.43,3.43,0,0,1,2.57-3.74,6.48,6.48,0,0,1,7.36,2.48c1.34,1.93,2.72,2.44,4.28,1.58a3.61,3.61,0,0,0,1.52-4.47,6.78,6.78,0,0,0-2.25-3.08,13.71,13.71,0,0,0-5.93-2.89c-4.58-.93-8.77-.18-11.89,3.6-4.83,5.85-1.42,13.87,6.57,15.62,1.53.34,3.11.5,4.63.91s2.78,1.08,2.66,2.87a3.24,3.24,0,0,1-3.09,3.07,6.75,6.75,0,0,1-6.6-2.23,6.88,6.88,0,0,0-.7-.82,3.11,3.11,0,0,0-4.3-.21,2.83,2.83,0,0,0-.77,4C774.9,391,779.06,392.12,782.8,392.35Zm-382.7,0c6.73,0,11-3.53,11.54-8.81.48-4.55-3.07-8.9-8.38-10.18-1.53-.36-3.1-.53-4.64-.84s-2.93-.86-3-2.81a3.45,3.45,0,0,1,2.75-3.61,6.3,6.3,0,0,1,7.26,2.69c1.06,1.58,2.35,2.32,4.18,1.43a3.54,3.54,0,0,0,1.57-4.44,6.85,6.85,0,0,0-2.41-3.23,14.61,14.61,0,0,0-8.52-3.15c-5.73-.22-10.46,3.44-11.17,8.6-.74,5.42,2.54,9.67,8.54,11,1.54.34,3.12.49,4.64.9s2.92,1.14,2.67,3.06a3.32,3.32,0,0,1-3.24,2.92,6.73,6.73,0,0,1-6.54-2.4,3.63,3.63,0,0,0-1.81-1.45,3.27,3.27,0,0,0-3.53,1,2.87,2.87,0,0,0-.34,3.57C392.2,390.93,396.35,392.11,400.1,392.35Zm248.73-14.3c0,3.37,0,6.75,0,10.12,0,2.65,1.24,4.2,3.26,4.17s3.19-1.57,3.19-4.25c0-5.95,0-11.9,0-17.85,0-4,0-4,4.07-4.14.21,0,.43,0,.64,0a3.23,3.23,0,0,0,3-3.32,3.07,3.07,0,0,0-3-3.08,15.75,15.75,0,0,0-3.22,0c-1.26.12-1.55-.38-1.52-1.56.07-3.59.05-7.18,0-10.76,0-2.19-1.26-3.56-3.14-3.62s-3.27,1.38-3.3,3.67c0,2.87,0,5.74,0,8.61,0,3.6,0,3.6-3.7,3.64-.29,0-.57,0-.86,0a3.21,3.21,0,0,0-.07,6.42,20.36,20.36,0,0,0,3.22,0c1.14-.1,1.46.3,1.44,1.43C648.79,371,648.83,374.54,648.83,378.05ZM213,380c-2.29-6-4.42-11.73-6.59-17.4-.9-2.34-2.53-3.2-4.47-2.46-1.75.67-2.4,2.49-1.58,4.7,3.1,8.3,6.24,16.59,9.35,24.89.58,1.57,1.58,2.6,3.3,2.57s2.69-1.09,3.24-2.65c.75-2.09,1.57-4.15,2.35-6.22q3.51-9.34,7-18.67a3.41,3.41,0,0,0-.47-3.82A3.16,3.16,0,0,0,222,360c-1.44.29-2,1.38-2.52,2.66C217.44,368.32,215.32,373.94,213,380Zm-50.61,1.22c0,2.69,0,4.91,0,7.13,0,2.46,1.28,4,3.24,4s3.2-1.51,3.21-4c0-3.72,0-7.45,0-11.17,0-6.74,3.19-10.32,9.87-11.09,1.88-.22,3.05-1.2,3.14-3.16s-1.36-3.27-3.64-3.28c-7.17,0-13.93,5.63-15.45,12.86C162.17,375.57,162.58,378.64,162.43,381.24Zm363.73-5.09c0,4.09,0,8.17,0,12.26,0,2.48,1.27,3.95,3.27,3.93s3.17-1.45,3.18-3.8q0-12.36,0-24.72c0-2.4-1.18-3.76-3.15-3.79s-3.28,1.36-3.3,3.87C526.14,368,526.16,372.07,526.16,376.15ZM741.38,376c0,4.08,0,8.17,0,12.25,0,2.63,1.27,4.14,3.34,4.08s3.11-1.52,3.11-4.08q0-12.15,0-24.3c0-2.54-1.18-3.94-3.22-3.93s-3.21,1.4-3.22,3.94C741.37,368,741.38,372,741.38,376Zm-128.7.2c0,4,0,8,0,12,0,2.64,1.26,4.15,3.33,4.09s3.12-1.5,3.12-4.07q0-12.15,0-24.3c0-2.54-1.17-4-3.21-3.94s-3.23,1.39-3.24,3.93C612.66,368,612.68,372.13,612.68,376.21Zm-358.13,0c0-4.16,0-8.32,0-12.47,0-2.36-1.27-3.71-3.26-3.68s-3.18,1.38-3.18,3.76q0,12.36,0,24.73c0,2.35,1.22,3.77,3.16,3.82s3.27-1.44,3.28-3.91C254.56,384.35,254.55,380.26,254.55,376.18Zm361.36-22.61a3.18,3.18,0,0,0,3.21-3.07,3.24,3.24,0,0,0-3.18-3.33,3.37,3.37,0,0,0-3.25,3.08A3.28,3.28,0,0,0,615.91,353.57Zm-364.59-6.4a3.34,3.34,0,0,0-3.21,3.33,3.28,3.28,0,0,0,3.25,3.06,3.17,3.17,0,0,0,3.17-3.31A3.24,3.24,0,0,0,251.32,347.17Zm493.37,6.39a3.17,3.17,0,0,0,3.14-3.13,3.25,3.25,0,0,0-3.26-3.26,3.37,3.37,0,0,0-3.18,3.16A3.29,3.29,0,0,0,744.69,353.56Zm-212.08-3.17a3.25,3.25,0,0,0-3.08-3.22,3.35,3.35,0,0,0-3.36,3.2,3.28,3.28,0,0,0,3.33,3.19A3.18,3.18,0,0,0,532.61,350.39Zm-93.72,41.95a3.32,3.32,0,0,0,3.32-3.25,3.26,3.26,0,0,0-3.14-3.19,3.18,3.18,0,0,0-3.29,3A3.26,3.26,0,0,0,438.89,392.34Z" transform="translate(-45.31 -130.21)"/><path class="cls-2" d="M45.35,273.14c.75-.36.7-1.19,1-1.78,2.58-4.62,9.38-5,11.91-.49C61.7,277,67,280,73.59,281.16A26.76,26.76,0,0,0,86,280.91a14.57,14.57,0,0,0,10.25-9.82,9.43,9.43,0,0,0-.79-8c-3.15-5.67-8.41-7.63-14.41-8.43-5.18-.7-10.4-1.12-15.45-2.6-12.48-3.65-20.45-14.6-19.76-27.13a27.86,27.86,0,0,1,19.43-24.65c13.38-4,26-2,37.13,6.73a26.4,26.4,0,0,1,7.75,9.9,6.81,6.81,0,0,1-2.93,9,7,7,0,0,1-9.26-2.42A24.66,24.66,0,0,0,71.1,212.91c-7.68,1.93-12.87,9.5-11.11,16.41,1.29,5.06,4.8,8,9.69,9.39,5.19,1.49,10.61,1.58,15.9,2.56,5.88,1.08,11.36,3.09,15.78,7.25,12.13,11.42,12.44,25.49,1.47,37.87-5,5.62-11.59,8.37-19,9A44.85,44.85,0,0,1,64.4,293C56,290,49.47,284.67,45.69,276.36c0-.1-.23-.14-.34-.21Z" transform="translate(-45.31 -130.21)"/><path class="cls-2" d="M407.78,130.25c2.43,1.18,4.47,2.66,5.43,5.39a7.94,7.94,0,0,1,.44,2.69c0,8,.23,15.93,0,23.89-.33,9.17-4.1,16.63-12.36,21.24a4.77,4.77,0,0,0-2.76,5c.72,17.2,1.33,34.4,2,51.6a8,8,0,0,1,0,1.29,2.33,2.33,0,0,1-2.32,2.37,2.27,2.27,0,0,1-2.43-2.24c-.17-1.71-.19-3.44-.25-5.16-.61-16-1.16-32-1.84-47.95-.18-4.22,1.44-7,5.15-9.06a17.37,17.37,0,0,0,9.59-15.74c.15-8.46,0-16.93.06-25.39,0-1.54-.38-2.88-2.1-2.91-1.88,0-2.24,1.42-2.23,3q0,10.44,0,20.87a6.34,6.34,0,0,1-3.83,6.2,5.9,5.9,0,0,1-6.47-.83,6.25,6.25,0,0,1-2.42-5.26c0-6.89,0-13.77,0-20.66a9.57,9.57,0,0,0-.09-1.93,1.61,1.61,0,0,0-3.2.07,11,11,0,0,0-.06,1.72c0,7,0,14.06,0,21.09a6.32,6.32,0,0,1-5.39,6.31,6.42,6.42,0,0,1-6.88-4,8.36,8.36,0,0,1-.43-3.17q0-9.9,0-19.8a8.78,8.78,0,0,0-.13-1.92,2,2,0,0,0-2-1.69A2.13,2.13,0,0,0,371,137a1.47,1.47,0,0,0-.06.42c.09,9.47-.5,19,.27,28.39.5,6.1,4,10.7,9.43,13.57,3.76,2,5.24,4.92,5.08,9.11q-1.87,47.19-3.64,94.38c-.11,2.68.46,5,2.54,6.77,2.43,2.07,5.2,2.79,8.2,1.44s4.54-4,4.41-7.46q-.52-14.19-1.08-28.38c0-.64,0-1.29-.08-1.93-.1-1.67.55-3,2.29-3s2.49,1.11,2.55,2.8c.14,4.16.33,8.31.49,12.47q.33,8.72.65,17.42c.29,8-4.72,13.46-12.28,13.45s-12.83-5.76-12.53-13.61q1.79-47.1,3.64-94.18a5,5,0,0,0-2.83-5.17c-7.88-4.49-11.85-11.44-12-20.5-.09-8.1,0-16.21-.05-24.31,0-3.69,1.22-6.41,4.74-7.88.16-.07.25-.31.38-.48h3.44c4.41,1.77,5.79,5.1,5.6,9.69-.26,6.15-.07,12.31-.07,18.47,0,1.16-.12,2.56,1.49,2.58s1.55-1.35,1.55-2.53c0-6.23.19-12.47-.08-18.69-.18-4.26.79-7.59,4.85-9.52h3c4,1.56,5.41,4.53,5.27,8.75-.21,6.07-.06,12.16-.06,18.25,0,.78,0,1.58,0,2.36a1.47,1.47,0,0,0,2.93,0c0-.57,0-1.14,0-1.72q0-10,0-20a7.91,7.91,0,0,1,1.9-5.32c.9-1.09,2.34-1.32,3.23-2.36Z" transform="translate(-45.31 -130.21)"/><path class="cls-2" d="M813.27,277.44c-.82.82-.67,2-.95,2.95-2.64,9.28-9.44,14.87-19.72,15.85a31.76,31.76,0,0,1-19.42-4.18,19.69,19.69,0,0,1-8.34-9,6.64,6.64,0,0,1,2.28-8.37,6.86,6.86,0,0,1,8.87.48,15.61,15.61,0,0,1,1.4,1.63c4,5.12,9.38,6.48,15.55,5.3a7.57,7.57,0,0,0,4.38-2.56c3-3.45,2.19-7.59-1.83-9.7-3-1.57-6.32-1.77-9.56-2.26A35.87,35.87,0,0,1,774.74,264c-14.46-7.49-13-26.06-2.64-33.56,8.7-6.29,18.06-6.61,27.72-2.63,6.17,2.55,11.39,6.22,13.45,13.07v2.58c-.15.14-.36.25-.42.43a7.4,7.4,0,0,1-6.25,5.19c-3.4.43-5.57-1.57-6.81-4.24-2.34-5.09-12.72-7.11-17.7-4.31a7.29,7.29,0,0,0-4,7.43c.39,2.73,2.05,4.27,5.67,5,3.38.66,6.8,1.06,10.16,1.73,8.79,1.75,15.13,6.52,18.26,15.12.45,1.24.75,2.54,1.13,3.81Z" transform="translate(-45.31 -130.21)"/><path class="cls-2" d="M334.61,130.25c0,.34.24.48.54.56,8.93,2.28,14.45,8.35,17.54,16.6,4.53,12.07,3.34,23.65-4.12,34.37a21.06,21.06,0,0,1-6.36,6,4.42,4.42,0,0,0-2.31,4.43c1.17,29.81,2.26,59.62,3.44,89.42.17,4.17-.33,8-3.38,11.15a12.48,12.48,0,0,1-13.73,2.68,12.08,12.08,0,0,1-7.65-11.66c.11-5.66.39-11.32.6-17,.93-24.72,1.83-49.44,2.83-74.16a5.34,5.34,0,0,0-2.6-5.14c-8.48-6-11.93-14.75-12.65-24.78a36.2,36.2,0,0,1,.84-10.26c.35-1.64,1.14-3,3-2.52s2.1,1.85,1.73,3.55a31.93,31.93,0,0,0,2.51,21.57,21.42,21.42,0,0,0,7.88,8.91,8.3,8.3,0,0,1,4.13,7.95q-1.32,33.21-2.55,66.42c-.32,8.45-.66,16.91-.91,25.36a7.22,7.22,0,0,0,4.9,7.34,7.31,7.31,0,0,0,8.28-1.82,8.16,8.16,0,0,0,1.95-6.17c-.51-12.54-1-25.08-1.45-37.62-.67-17.63-1.3-35.26-2.05-52.88a9.16,9.16,0,0,1,4.48-8.84c5.73-3.74,8.74-9.41,10.08-15.94,1.93-9.37.57-18.2-5.53-25.82-7.37-9.2-19-9.06-26.37.12-.4.5-.76,1-1.2,1.51a2.23,2.23,0,0,1-3.26.36,2.13,2.13,0,0,1-.62-3.06c3.33-4.88,7.58-8.56,13.55-9.8.67-.13,1.27-.16,1.53-.89Z" transform="translate(-45.31 -130.21)"/><path class="cls-1" d="M813.27,273.57c-.38-1.27-.68-2.57-1.13-3.81-3.13-8.6-9.47-13.37-18.26-15.12-3.36-.67-6.78-1.07-10.16-1.73-3.62-.7-5.28-2.24-5.67-5a7.29,7.29,0,0,1,4-7.43c5-2.8,15.36-.78,17.7,4.31,1.24,2.67,3.41,4.67,6.81,4.24a7.4,7.4,0,0,0,6.25-5.19c.06-.18.27-.29.42-.43Z" transform="translate(-45.31 -130.21)"/><path class="cls-1" d="M404.34,130.25c-.89,1-2.33,1.27-3.23,2.36a7.91,7.91,0,0,0-1.9,5.32q0,10,0,20c0,.58,0,1.15,0,1.72a1.47,1.47,0,0,1-2.93,0c-.07-.78,0-1.58,0-2.36,0-6.09-.15-12.18.06-18.25.14-4.22-1.26-7.19-5.27-8.75Z" transform="translate(-45.31 -130.21)"/><path class="cls-1" d="M388,130.25c-4.06,1.93-5,5.26-4.85,9.52.27,6.22.07,12.46.08,18.69,0,1.18,0,2.54-1.55,2.53s-1.49-1.42-1.49-2.58c0-6.16-.19-12.32.07-18.47.19-4.59-1.19-7.92-5.6-9.69Z" transform="translate(-45.31 -130.21)"/><path class="cls-2" d="M353.12,322.13h1.71a187.75,187.75,0,0,0,19,0h3a3.81,3.81,0,0,0,2.6,0h.85a16.06,16.06,0,0,0,1.67.18q15.45,0,30.89,0a5.08,5.08,0,0,0,2.32-.19h1.28a170.56,170.56,0,0,0,18.09,0h.85a5,5,0,0,0,3,0h1.71a147.12,147.12,0,0,0,16.8,0h.85a12.42,12.42,0,0,0,1.46.19h41.42a10.56,10.56,0,0,0,1.47-.19h1.28a14.21,14.21,0,0,0,1.46.19q17.91,0,35.83,0a12.38,12.38,0,0,0,1.46-.18h1.71a13.71,13.71,0,0,0,1.68.19q31.69,0,63.39,0a125.21,125.21,0,0,0,12.85-.17h.85a130.42,130.42,0,0,0,15.94,0h.85c.63.06,1.26.19,1.89.19H708.5c.63,0,1.26-.13,1.9-.19h1.7a157.19,157.19,0,0,0,17.23,0h.85q9.69.48,19.39,0h1.68c1.07.06,2.13.19,3.2.19h42a8.47,8.47,0,0,1,5.65,1.59c2.71,2.21,3.08,4.91,1.29,9.08l0,0a.37.37,0,0,0-.39.41l0,0a.34.34,0,0,0-.39.38l0,0a13.38,13.38,0,0,1-7.39,1.75c-15.42-.05-30.85,0-46.27,0H220.16q-82.2,0-164.41.06c-5.92,0-10.82-3.7-7.85-10.47h0a.35.35,0,0,0,.35-.44l.05-.06c.26,0,.39-.12.36-.38l.07-.07c.26,0,.38-.1.38-.36l.06-.05a.36.36,0,0,0,.45-.35h0a.7.7,0,0,0,.78-.46l.06,0c2.11-.7,4.34-.51,6.5-.84h1.27a22.27,22.27,0,0,0,6.47,0H66a16,16,0,0,0,1.68.19c10.16,0,20.32,0,30.47,0a84.24,84.24,0,0,0,10-.17h1.28c.63.06,1.26.19,1.89.19h71.55c.63,0,1.27-.13,1.9-.19h1.71a19.12,19.12,0,0,0,6,0h.84a10,10,0,0,0,4.32,0h2.14c4.41.45,8.83.16,13.24.17a94.84,94.84,0,0,0,11.31-.17h1.69a3,3,0,0,0,2.18,0h.85q10.56.48,21.11,0h.84a1.85,1.85,0,0,0,1.74,0H255a1.11,1.11,0,0,0,1.3,0h.85a160.06,160.06,0,0,0,17.66,0h.85a112.21,112.21,0,0,0,14.67,0h.83a16,16,0,0,0,1.68.19q24.69,0,49.4,0A92.39,92.39,0,0,0,353.12,322.13Z" transform="translate(-45.31 -130.21)"/><path class="cls-2" d="M431.9,269.52c.24-5.48-.66-12.48.36-19.38,1.69-11.37,8.21-19.18,19-22.81s20.54-1.22,28.77,6.67c1.33,1.27,1.85,1.16,3.07-.06a28.32,28.32,0,0,1,48.19,20.27c0,11.69,0,23.38,0,35.07,0,5.35-4.7,8.83-9.43,7.09a6.87,6.87,0,0,1-4.5-6.68c-.07-4.09,0-8.18,0-12.27,0-7.6,0-15.21,0-22.81,0-6-2.57-10.57-8-13.25a13.84,13.84,0,0,0-14.86,1.13c-4.36,3-6.1,7.4-6.08,12.61,0,11.12,0,22.24,0,33.36a11.06,11.06,0,0,1-.38,3.62,6.94,6.94,0,0,1-7.59,4.66,7.07,7.07,0,0,1-6-7.09c0-7,0-14.06,0-21.09,0-4.73,0-9.47,0-14.2-.06-8.16-5.95-14.31-13.89-14.56A14,14,0,0,0,446,253.36c-.34,10.32-.12,20.65-.15,31,0,1.94.07,3.88-.05,5.81a6.94,6.94,0,0,1-13.88-.23C431.83,283.61,431.9,277.3,431.9,269.52Z" transform="translate(-45.31 -130.21)"/><path class="cls-2" d="M554.74,268c2.84,8.95,11.78,14.85,21.43,14.42a28.48,28.48,0,0,0,13.64-4.08c3.76-2.25,7.24-1.59,9.6,1.75,2.15,3,1.5,6.95-1.82,9.5A30.54,30.54,0,0,1,584,295.68c-13.49,2.28-25.53-.48-35.17-10.77a35.48,35.48,0,0,1,30.52-59.23c18.13,2.39,30.4,16,30.88,34.23.14,5.21-2.59,8.06-7.78,8.06H554.74Zm20.16-14H593c2.51,0,2.52,0,1.56-2.29a20.93,20.93,0,0,0-19.94-12.39c-8.55.22-16.74,5.84-19.5,13.29-.46,1.25-.05,1.42,1.09,1.41C562.42,254,568.66,254,574.9,254Z" transform="translate(-45.31 -130.21)"/><path class="cls-2" d="M120.48,260.89a35.4,35.4,0,1,1,35.38,35.49A35.43,35.43,0,0,1,120.48,260.89Zm14-.15A21.42,21.42,0,1,0,156,239.33,21.58,21.58,0,0,0,134.45,260.74Z" transform="translate(-45.31 -130.21)"/><path class="cls-2" d="M618.52,272.29c.25-5.27-.49-11.66.59-18,2.9-17,18.4-29.38,36.19-28.9,16.85.45,31.61,13.89,33.62,30.63.8,6.65.24,13.32.36,20,.08,4.31,0,8.61,0,12.91s-2.91,7.42-6.93,7.47-7-3-7-7.34c-.06-9.18,0-18.36,0-27.53-.09-10.26-5.85-18.27-15.1-21.19a21.38,21.38,0,0,0-27.71,19.92c-.13,9.61,0,19.22,0,28.82,0,5.3-4.9,8.76-9.58,6.82-3-1.27-4.38-3.74-4.37-7C618.53,283.71,618.52,278.55,618.52,272.29Z" transform="translate(-45.31 -130.21)"/><path class="cls-2" d="M754.73,252.43c-.29,5.77.55,12.89-.41,19.95-1.85,13.49-14.13,23.95-28.06,24S700,286.17,697.9,272.72a37.3,37.3,0,0,1-.43-5.78c0-11.33,0-22.65,0-34a6.87,6.87,0,0,1,5.28-7,7.1,7.1,0,0,1,7.77,3.26,8.51,8.51,0,0,1,.91,4.57c0,11,0,22.08,0,33.12,0,7.54,4.13,13.1,10.87,14.94a14.58,14.58,0,0,0,18.28-12.46c.11-1.14.15-2.29.16-3.43,0-10.83,0-21.66,0-32.48,0-4.69,2.84-7.75,7.06-7.72s6.88,3.13,6.89,7.68C754.73,239.36,754.73,245.24,754.73,252.43Z" transform="translate(-45.31 -130.21)"/><path class="cls-2" d="M219.87,265.34c0,7.89,0,15.78,0,23.67-.06,5.37-4.81,8.74-9.53,6.89-2.81-1.1-4.41-3.67-4.41-7.2q0-23.24,0-46.48c0-2.89,0-2.89-3-2.9-1.79,0-3.59.06-5.37-.09a6.94,6.94,0,0,1,.1-13.83,41.73,41.73,0,0,1,5.81,0c1.83.14,2.48-.29,2.55-2.35a34.9,34.9,0,0,1,23-31.77c4.13-1.44,7.89.18,9.28,4s-.46,7.43-4.38,9c-8.64,3.47-13.2,9.9-14,19.14-.13,1.48.15,2,1.75,2,3.36-.12,6.74-.06,10.11,0,4.39,0,7.5,2.88,7.56,6.85s-2.94,7-7.3,7.09c-3.45.09-6.89.1-10.33,0-1.54,0-1.93.46-1.91,2C219.9,249.27,219.87,257.3,219.87,265.34Z" transform="translate(-45.31 -130.21)"/><path class="cls-2" d="M278.22,265.38c0,8,0,15.91,0,23.87a7,7,0,0,1-13.57,2.37,10.79,10.79,0,0,1-.37-3.62c0-15.34,0-30.68,0-46,0-1.78-.45-2.37-2.26-2.26-2.57.15-5.16.09-7.74,0a7,7,0,0,1-7.07-7.09c0-3.92,3.1-6.81,7.29-6.85,2.59,0,5.17-.11,7.75,0,1.6.09,2.05-.36,2-2-.09-8.39,0-16.78,0-25.16a10.25,10.25,0,0,1,.41-3.61,7,7,0,0,1,13.54,2.48c0,8.6.1,17.21,0,25.81,0,2.17.61,2.62,2.6,2.48,2.5-.18,5-.08,7.53,0a6.95,6.95,0,1,1,.3,13.89c-2.86.14-5.74.12-8.6,0-1.39,0-1.82.33-1.8,1.78C278.26,249.46,278.22,257.42,278.22,265.38Z" transform="translate(-45.31 -130.21)"/><path class="cls-2" d="M582.54,389.07c-5,3.26-9.93,4.2-15.25,2.39a16.37,16.37,0,1,1,21.68-16c.12,5.88.13,11.76,0,17.63a16.35,16.35,0,0,1-30.59,7.33c-.69-1.25-1.12-2.47-.34-3.84,1.33-2.33,4.34-2.15,5.85.43a9.66,9.66,0,0,0,8.31,5.26,9.88,9.88,0,0,0,10.35-9.77C582.57,391.46,582.54,390.46,582.54,389.07Zm-9.81-3.18a9.9,9.9,0,1,0-10-9.92A10,10,0,0,0,572.73,385.89Z" transform="translate(-45.31 -130.21)"/><path class="cls-2" d="M466.76,369.46q0-9.24,0-18.49c0-3.13,1.12-4.29,4.29-4.23,4.85.1,9.74-.45,14.54.81a22.44,22.44,0,0,1,16.77,22.67A22.72,22.72,0,0,1,483.54,392c-4.49.73-9,.32-13.52.35-2.1,0-3.25-1.41-3.26-3.72C466.74,382.22,466.76,375.84,466.76,369.46Zm6.45.08c0,3.15,0,6.3,0,9.45.06,2.26-1,5.44.44,6.53s4.53.42,6.87.31a16.19,16.19,0,0,0,15.1-14.23c1-8.41-3.47-15.31-11.31-17.69-3.16-1-6.38-.59-9.59-.73-1.22-.06-1.57.31-1.55,1.54C473.25,359.66,473.21,364.6,473.21,369.54Z" transform="translate(-45.31 -130.21)"/><path class="cls-3" d="M47.9,325.19c-3,6.77,1.93,10.48,7.85,10.47q82.22-.15,164.41-.06H748.88c15.42,0,30.85,0,46.27,0a13.38,13.38,0,0,0,7.39-1.75c-1.25,2.19-3.51,2.31-5.58,2.4-3.93.18-7.88.05-11.83.05q-364.38,0-728.76,0a12.86,12.86,0,0,1-6.62-1.43,7,7,0,0,1-2.68-9.15A1,1,0,0,1,47.9,325.19Z" transform="translate(-45.31 -130.21)"/><path class="cls-2" d="M70.34,347.44c4.84.13,9.23,1.15,12.78,4.52a10.86,10.86,0,0,1,2.48,3.48,3.14,3.14,0,0,1-1.23,4.28,3,3,0,0,1-4.28-1.16c-2.77-4.7-7.22-5.31-12-4.86a6.67,6.67,0,0,0-6,6.34c0,2.94,2.13,5.34,5.65,6.06,2.45.5,5,.71,7.41,1.23,6.34,1.35,11,6.62,10.77,12.17a13.12,13.12,0,0,1-11.75,12.3c-6,.66-11.74-.42-16.19-5.11a10.12,10.12,0,0,1-2-3,2.93,2.93,0,0,1,1.37-4,2.78,2.78,0,0,1,4,.83c2.74,4.55,7,5.35,11.73,5,3.58-.27,6.37-3,6.48-6.07.1-2.55-2.38-5.21-5.67-5.88-2.6-.52-5.27-.68-7.85-1.26-6.61-1.49-10.77-6.79-10.29-12.88.51-6.42,5.43-11.22,12.14-11.83C68.76,347.48,69.62,347.47,70.34,347.44Z" transform="translate(-45.31 -130.21)"/><path class="cls-2" d="M114.93,379.53c1.53,4.67,6.38,7.23,11.58,6.19a15.61,15.61,0,0,0,4.39-1.67,3.14,3.14,0,0,1,4.47,1c.91,1.5.49,3.23-1.32,4.44a16.7,16.7,0,0,1-17,1.28,16,16,0,0,1-8.67-19.37,16.25,16.25,0,0,1,17.39-11.69,16,16,0,0,1,14.45,15.77c.09,2.7-1.09,3.94-3.87,3.95-6.88,0-13.76,0-20.64,0A7.72,7.72,0,0,0,114.93,379.53Zm-.16-6.55c5.78,0,11.37-.05,17,0,1.62,0,1.66-.49,1-1.69a9.44,9.44,0,0,0-9.17-5.22C119.68,366.19,116.42,368.7,114.77,373Z" transform="translate(-45.31 -130.21)"/><path class="cls-2" d="M711.17,389.41c-8.34,6-21.12,2.49-24.64-7.13-2.37-6.52-1.2-12.52,3.72-17.42s11-6.14,17.42-3.63,9.62,7.69,10,14.48c.22,4.28,0,8.59.07,12.89,0,1.77-.59,3.15-2.38,3.61s-3-.46-3.75-2.08A7.49,7.49,0,0,0,711.17,389.41Zm.14-12.91c0-5.65-4.16-10.05-9.56-10a10,10,0,0,0-9.93,9.81,9.62,9.62,0,0,0,9.92,9.67A9.26,9.26,0,0,0,711.31,376.5Z" transform="translate(-45.31 -130.21)"/><path class="cls-2" d="M295.37,392.82c.31.67,1.07.52,1.6.78a4.84,4.84,0,0,1,2.94,4.83,4.49,4.49,0,0,1-3.21,4.37,5.15,5.15,0,0,1-5.54-1.33,1.67,1.67,0,0,1,2.06-2.62,2,2,0,0,1,.35.25c.82.72,1.7,1.17,2.65.27a1.44,1.44,0,0,0,.24-2c-.69-1.05-1.58-.87-2.65-.54-1.7.55-2.81-.37-2.3-2.09.65-2.19-.23-2.67-2.13-3.22a16.08,16.08,0,0,1-11.51-15.44,16.31,16.31,0,0,1,29.32-10,11.35,11.35,0,0,1,.85,1.24c1.11,1.86.83,3.69-.72,4.74s-3.43.63-4.64-1.16a10.23,10.23,0,0,0-5.84-4.44,9.88,9.88,0,0,0-8,17.84,9.73,9.73,0,0,0,12.68-1.71c.24-.26.46-.55.68-.83,1.54-2,3.37-2.44,4.95-1.24s1.65,3.06.3,5a15.39,15.39,0,0,1-9.76,6.51c-.76.16-1.51.35-2.27.54C295.39,392.57,295.39,392.7,295.37,392.82Z" transform="translate(-45.31 -130.21)"/><path class="cls-2" d="M349.43,359.64a16.36,16.36,0,1,1-16.54,16.22A16.31,16.31,0,0,1,349.43,359.64Zm9.71,16.41a9.9,9.9,0,1,0-10.06,9.84A9.89,9.89,0,0,0,359.14,376.05Z" transform="translate(-45.31 -130.21)"/><path class="cls-2" d="M782.8,392.35c-3.74-.23-7.9-1.4-10.4-5.77a2.83,2.83,0,0,1,.77-4,3.11,3.11,0,0,1,4.3.21,6.88,6.88,0,0,1,.7.82,6.75,6.75,0,0,0,6.6,2.23,3.24,3.24,0,0,0,3.09-3.07c.12-1.79-1.23-2.49-2.66-2.87s-3.1-.57-4.63-.91c-8-1.75-11.4-9.77-6.57-15.62,3.12-3.78,7.31-4.53,11.89-3.6a13.71,13.71,0,0,1,5.93,2.89,6.78,6.78,0,0,1,2.25,3.08,3.61,3.61,0,0,1-1.52,4.47c-1.56.86-2.94.35-4.28-1.58a6.48,6.48,0,0,0-7.36-2.48,3.43,3.43,0,0,0-2.57,3.74c.11,1.84,1.45,2.32,2.91,2.62s3.12.48,4.64.85c5.41,1.29,9,5.76,8.4,10.35C793.61,388.93,789.44,392.33,782.8,392.35Z" transform="translate(-45.31 -130.21)"/><path class="cls-2" d="M400.1,392.35c-3.75-.24-7.9-1.42-10.39-5.8a2.87,2.87,0,0,1,.34-3.57,3.27,3.27,0,0,1,3.53-1,3.63,3.63,0,0,1,1.81,1.45,6.73,6.73,0,0,0,6.54,2.4,3.32,3.32,0,0,0,3.24-2.92c.25-1.92-1.16-2.66-2.67-3.06s-3.1-.56-4.64-.9c-6-1.32-9.28-5.57-8.54-11,.71-5.16,5.44-8.82,11.17-8.6a14.61,14.61,0,0,1,8.52,3.15,6.85,6.85,0,0,1,2.41,3.23,3.54,3.54,0,0,1-1.57,4.44c-1.83.89-3.12.15-4.18-1.43a6.3,6.3,0,0,0-7.26-2.69,3.45,3.45,0,0,0-2.75,3.61c0,2,1.4,2.5,3,2.81s3.11.48,4.64.84c5.31,1.28,8.86,5.63,8.38,10.18C411.08,388.82,406.83,392.34,400.1,392.35Z" transform="translate(-45.31 -130.21)"/><path class="cls-2" d="M648.83,378.05c0-3.51,0-7,0-10.54,0-1.13-.3-1.53-1.44-1.43a20.36,20.36,0,0,1-3.22,0,3.21,3.21,0,0,1,.07-6.42c.29,0,.57,0,.86,0,3.7,0,3.7,0,3.7-3.64,0-2.87,0-5.74,0-8.61,0-2.29,1.36-3.73,3.3-3.67s3.12,1.43,3.14,3.62c0,3.58.06,7.17,0,10.76,0,1.18.26,1.68,1.52,1.56a15.75,15.75,0,0,1,3.22,0,3.07,3.07,0,0,1,3,3.08,3.23,3.23,0,0,1-3,3.32c-.21,0-.43,0-.64,0-4.07.13-4.07.13-4.07,4.14,0,5.95,0,11.9,0,17.85,0,2.68-1.17,4.22-3.19,4.25s-3.25-1.52-3.26-4.17C648.82,384.8,648.83,381.42,648.83,378.05Z" transform="translate(-45.31 -130.21)"/><path class="cls-2" d="M213,380c2.28-6.08,4.4-11.7,6.48-17.32.47-1.28,1.08-2.37,2.52-2.66a3.16,3.16,0,0,1,3.14.92,3.41,3.41,0,0,1,.47,3.82q-3.51,9.33-7,18.67c-.78,2.07-1.6,4.13-2.35,6.22-.55,1.56-1.52,2.63-3.24,2.65s-2.72-1-3.3-2.57c-3.11-8.3-6.25-16.59-9.35-24.89-.82-2.21-.17-4,1.58-4.7,1.94-.74,3.57.12,4.47,2.46C208.62,368.29,210.75,374,213,380Z" transform="translate(-45.31 -130.21)"/><path class="cls-2" d="M162.43,381.24c.15-2.6-.26-5.67.38-8.73,1.52-7.23,8.28-12.89,15.45-12.86,2.28,0,3.74,1.29,3.64,3.28s-1.26,2.94-3.14,3.16c-6.68.77-9.87,4.35-9.87,11.09,0,3.72,0,7.45,0,11.17,0,2.48-1.25,4-3.21,4s-3.21-1.51-3.24-4C162.41,386.15,162.43,383.93,162.43,381.24Z" transform="translate(-45.31 -130.21)"/><path class="cls-2" d="M526.16,376.15c0-4.08,0-8.17,0-12.25,0-2.51,1.23-3.9,3.3-3.87s3.14,1.39,3.15,3.79q0,12.36,0,24.72c0,2.35-1.26,3.79-3.18,3.8s-3.25-1.45-3.27-3.93C526.14,384.32,526.16,380.24,526.16,376.15Z" transform="translate(-45.31 -130.21)"/><path class="cls-2" d="M741.38,376c0-4,0-8,0-12,0-2.54,1.17-3.93,3.22-3.94s3.22,1.39,3.22,3.93q0,12.15,0,24.3c0,2.56-1.13,4-3.11,4.08s-3.33-1.45-3.34-4.08C741.37,384.18,741.38,380.09,741.38,376Z" transform="translate(-45.31 -130.21)"/><path class="cls-2" d="M612.68,376.21c0-4.08,0-8.17,0-12.25,0-2.54,1.18-3.93,3.24-3.93s3.21,1.4,3.21,3.94q0,12.15,0,24.3c0,2.57-1.14,4-3.12,4.07s-3.32-1.45-3.33-4.09C612.67,384.24,612.68,380.23,612.68,376.21Z" transform="translate(-45.31 -130.21)"/><path class="cls-2" d="M254.55,376.18c0,4.08,0,8.17,0,12.25,0,2.47-1.29,4-3.28,3.91s-3.16-1.47-3.16-3.82q0-12.36,0-24.73c0-2.38,1.19-3.73,3.18-3.76s3.24,1.32,3.26,3.68C254.57,367.86,254.55,372,254.55,376.18Z" transform="translate(-45.31 -130.21)"/><path class="cls-3" d="M621.72,322.13a125.21,125.21,0,0,1-12.85.17q-31.7.06-63.39,0a13.71,13.71,0,0,1-1.68-.19c.68-.6,1.51-.33,2.27-.33q36.69,0,73.38,0C620.21,321.8,621,321.53,621.72,322.13Z" transform="translate(-45.31 -130.21)"/><path class="cls-3" d="M184.82,322.13c-.63.06-1.27.19-1.9.19H111.37c-.63,0-1.26-.13-1.89-.19.68-.6,1.51-.33,2.27-.33q35.4,0,70.8,0C183.31,321.8,184.14,321.53,184.82,322.13Z" transform="translate(-45.31 -130.21)"/><path class="cls-3" d="M710.4,322.13c-.64.06-1.27.19-1.9.19H641.25c-.63,0-1.26-.13-1.89-.19.68-.6,1.51-.33,2.27-.33q33.24,0,66.49,0C708.88,321.8,709.71,321.53,710.4,322.13Z" transform="translate(-45.31 -130.21)"/><path class="cls-3" d="M353.12,322.13a92.39,92.39,0,0,1-10.91.18q-24.7.06-49.4,0a16,16,0,0,1-1.68-.19c.61-.56,1.36-.33,2.05-.34q28.95,0,57.89,0C351.76,321.8,352.51,321.57,353.12,322.13Z" transform="translate(-45.31 -130.21)"/><path class="cls-3" d="M803.43,333c1.79-4.17,1.42-6.87-1.29-9.08a8.47,8.47,0,0,0-5.65-1.59h-42c-1.07,0-2.13-.13-3.2-.19.61-.55,1.36-.33,2.06-.34q21.88,0,43.79,0c4.31,0,6.6,1.68,8,5.73A5.11,5.11,0,0,1,803.43,333Z" transform="translate(-45.31 -130.21)"/><path class="cls-3" d="M502.06,322.13a10.56,10.56,0,0,1-1.47.19H459.17a12.42,12.42,0,0,1-1.46-.19c.54-.52,1.21-.34,1.84-.34q20.34,0,40.67,0C500.84,321.79,501.52,321.6,502.06,322.13Z" transform="translate(-45.31 -130.21)"/><path class="cls-3" d="M108.2,322.13a84.24,84.24,0,0,1-10,.17c-10.15.05-20.31,0-30.47,0a16,16,0,0,1-1.68-.19c.54-.53,1.22-.34,1.84-.34q19.26,0,38.52,0C107,321.79,107.66,321.6,108.2,322.13Z" transform="translate(-45.31 -130.21)"/><path class="cls-2" d="M615.91,353.57a3.28,3.28,0,0,1-3.22-3.32,3.37,3.37,0,0,1,3.25-3.08,3.24,3.24,0,0,1,3.18,3.33A3.18,3.18,0,0,1,615.91,353.57Z" transform="translate(-45.31 -130.21)"/><path class="cls-2" d="M251.32,347.17a3.24,3.24,0,0,1,3.21,3.08,3.17,3.17,0,0,1-3.17,3.31,3.28,3.28,0,0,1-3.25-3.06A3.34,3.34,0,0,1,251.32,347.17Z" transform="translate(-45.31 -130.21)"/><path class="cls-2" d="M744.69,353.56a3.29,3.29,0,0,1-3.3-3.23,3.37,3.37,0,0,1,3.18-3.16,3.25,3.25,0,0,1,3.26,3.26A3.17,3.17,0,0,1,744.69,353.56Z" transform="translate(-45.31 -130.21)"/><path class="cls-2" d="M532.61,350.39a3.18,3.18,0,0,1-3.11,3.17,3.28,3.28,0,0,1-3.33-3.19,3.35,3.35,0,0,1,3.36-3.2A3.25,3.25,0,0,1,532.61,350.39Z" transform="translate(-45.31 -130.21)"/><path class="cls-3" d="M542.09,322.13a12.38,12.38,0,0,1-1.46.18q-17.93,0-35.83,0a14.21,14.21,0,0,1-1.46-.19c.53-.52,1.21-.34,1.84-.34q17.54,0,35.07,0C540.87,321.79,541.55,321.6,542.09,322.13Z" transform="translate(-45.31 -130.21)"/><path class="cls-2" d="M438.89,392.34a3.26,3.26,0,0,1-3.11-3.43,3.18,3.18,0,0,1,3.29-3,3.26,3.26,0,0,1,3.14,3.19A3.32,3.32,0,0,1,438.89,392.34Z" transform="translate(-45.31 -130.21)"/><path class="cls-3" d="M415.11,322.13a5.08,5.08,0,0,1-2.32.19q-15.45,0-30.89,0a16.06,16.06,0,0,1-1.67-.18c.54-.53,1.22-.34,1.84-.34q15.6,0,31.2,0C413.89,321.79,414.57,321.6,415.11,322.13Z" transform="translate(-45.31 -130.21)"/><path class="cls-3" d="M224.42,322.13a94.84,94.84,0,0,1-11.31.17c-4.41,0-8.83.28-13.24-.17.4-.42.92-.34,1.41-.34q10.86,0,21.73,0C223.5,321.79,224,321.71,224.42,322.13Z" transform="translate(-45.31 -130.21)"/><path class="cls-3" d="M250.25,322.13q-10.56.48-21.11,0c.26-.11.51-.32.77-.32q9.78,0,19.57,0C249.74,321.81,250,322,250.25,322.13Z" transform="translate(-45.31 -130.21)"/><path class="cls-3" d="M749.57,322.13q-9.71.48-19.39,0c.47-.48,1.07-.34,1.63-.34q8.06,0,16.13,0C748.5,321.79,749.1,321.65,749.57,322.13Z" transform="translate(-45.31 -130.21)"/><path class="cls-3" d="M434.48,322.13a170.56,170.56,0,0,1-18.09,0c.61-.56,1.36-.33,2.05-.33q7,0,14,0C433.11,321.8,433.87,321.56,434.48,322.13Z" transform="translate(-45.31 -130.21)"/><path class="cls-3" d="M373.81,322.13a187.75,187.75,0,0,1-19,0c.46-.47,1.06-.34,1.61-.34q7.88,0,15.76,0C372.75,321.79,373.35,321.67,373.81,322.13Z" transform="translate(-45.31 -130.21)"/><path class="cls-3" d="M274.78,322.13a160.06,160.06,0,0,1-17.66,0c.68-.6,1.51-.33,2.27-.33,4.45,0,8.89,0,13.34,0C273.42,321.8,274.17,321.56,274.78,322.13Z" transform="translate(-45.31 -130.21)"/><path class="cls-3" d="M729.33,322.13a157.19,157.19,0,0,1-17.23,0c.83-.65,1.8-.32,2.7-.33,4.16,0,8.32,0,12.48,0C728,321.8,728.72,321.56,729.33,322.13Z" transform="translate(-45.31 -130.21)"/><path class="cls-3" d="M456.86,322.13a147.12,147.12,0,0,1-16.8,0c1-.68,2.09-.31,3.13-.32,3.87-.05,7.74,0,11.62,0C455.5,321.8,456.25,321.57,456.86,322.13Z" transform="translate(-45.31 -130.21)"/><path class="cls-3" d="M638.51,322.13a130.42,130.42,0,0,1-15.94,0c1.65-.74,3.39-.35,5.07-.31C631.26,321.91,634.91,321.34,638.51,322.13Z" transform="translate(-45.31 -130.21)"/><path class="cls-3" d="M290.3,322.13a112.21,112.21,0,0,1-14.67,0c1.7-.72,3.48-.34,5.21-.31C284,321.89,287.17,321.36,290.3,322.13Z" transform="translate(-45.31 -130.21)"/><path class="cls-3" d="M64.72,322.13a22.27,22.27,0,0,1-6.47,0A12.67,12.67,0,0,1,64.72,322.13Z" transform="translate(-45.31 -130.21)"/><path class="cls-3" d="M192.57,322.13a19.12,19.12,0,0,1-6,0A11.26,11.26,0,0,1,192.57,322.13Z" transform="translate(-45.31 -130.21)"/><path class="cls-3" d="M57,322.13c-2.16.33-4.39.14-6.5.84C52.48,321.38,54.7,321.57,57,322.13Z" transform="translate(-45.31 -130.21)"/><path class="cls-3" d="M197.73,322.13a10,10,0,0,1-4.32,0A5.76,5.76,0,0,1,197.73,322.13Z" transform="translate(-45.31 -130.21)"/><path class="cls-3" d="M438.35,322.13a5,5,0,0,1-3,0A3,3,0,0,1,438.35,322.13Z" transform="translate(-45.31 -130.21)"/><path class="cls-3" d="M379.38,322.13a3.81,3.81,0,0,1-2.6,0A2.32,2.32,0,0,1,379.38,322.13Z" transform="translate(-45.31 -130.21)"/><path class="cls-3" d="M252.83,322.13a1.85,1.85,0,0,1-1.74,0A1.2,1.2,0,0,1,252.83,322.13Z" transform="translate(-45.31 -130.21)"/><path class="cls-3" d="M228.29,322.13a3,3,0,0,1-2.18,0A1.72,1.72,0,0,1,228.29,322.13Z" transform="translate(-45.31 -130.21)"/><path class="cls-3" d="M256.27,322.13a1.11,1.11,0,0,1-1.3,0A.78.78,0,0,1,256.27,322.13Z" transform="translate(-45.31 -130.21)"/><path class="cls-3" d="M50.42,323a.7.7,0,0,1-.78.46A.63.63,0,0,1,50.42,323Z" transform="translate(-45.31 -130.21)"/><path class="cls-3" d="M802.58,333.85a.34.34,0,0,1,.39-.38A.35.35,0,0,1,802.58,333.85Z" transform="translate(-45.31 -130.21)"/><path class="cls-3" d="M803,333.43a.37.37,0,0,1,.39-.41A.37.37,0,0,1,803,333.43Z" transform="translate(-45.31 -130.21)"/><path class="cls-3" d="M48.26,324.74a.35.35,0,0,1-.35.44Z" transform="translate(-45.31 -130.21)"/><path class="cls-3" d="M48.67,324.3c0,.26-.1.38-.36.38A.33.33,0,0,1,48.67,324.3Z" transform="translate(-45.31 -130.21)"/><path class="cls-3" d="M49.12,323.87c0,.26-.12.38-.38.36A.33.33,0,0,1,49.12,323.87Z" transform="translate(-45.31 -130.21)"/><path class="cls-3" d="M49.63,323.47a.36.36,0,0,1-.45.35Z" transform="translate(-45.31 -130.21)"/><path class="cls-1" d="M574.9,254c-6.24,0-12.48,0-18.72,0-1.14,0-1.55-.16-1.09-1.41,2.76-7.45,10.95-13.07,19.5-13.29a20.93,20.93,0,0,1,19.94,12.39c1,2.28,1,2.29-1.56,2.29Z" transform="translate(-45.31 -130.21)"/><path class="cls-1" d="M134.45,260.74a21.42,21.42,0,1,1,21.3,21.67A21.5,21.5,0,0,1,134.45,260.74Z" transform="translate(-45.31 -130.21)"/><path class="cls-1" d="M572.73,385.89a9.9,9.9,0,1,1,9.81-9.89A9.91,9.91,0,0,1,572.73,385.89Z" transform="translate(-45.31 -130.21)"/><path class="cls-1" d="M473.21,369.54c0-4.94,0-9.88,0-14.82,0-1.23.33-1.6,1.55-1.54,3.21.14,6.43-.23,9.59.73,7.84,2.38,12.28,9.28,11.31,17.69a16.19,16.19,0,0,1-15.1,14.23c-2.34.11-5.35.83-6.87-.31s-.38-4.27-.44-6.53C473.16,375.84,473.21,372.69,473.21,369.54Z" transform="translate(-45.31 -130.21)"/><path class="cls-1" d="M114.77,373c1.65-4.28,4.91-6.79,8.8-6.88a9.44,9.44,0,0,1,9.17,5.22c.64,1.2.6,1.72-1,1.69C126.14,372.93,120.55,373,114.77,373Z" transform="translate(-45.31 -130.21)"/><path class="cls-1" d="M711.31,376.5a9.26,9.26,0,0,1-9.57,9.45,9.62,9.62,0,0,1-9.92-9.67,10,10,0,0,1,9.93-9.81C707.15,366.45,711.34,370.85,711.31,376.5Z" transform="translate(-45.31 -130.21)"/><path class="cls-1" d="M359.14,376.05a9.9,9.9,0,1,1-9.73-9.95A9.92,9.92,0,0,1,359.14,376.05Z" transform="translate(-45.31 -130.21)"/></svg>