<svg id="Camada_1" data-name="Camada 1" xmlns="http://www.w3.org/2000/svg" viewBox="0 0 740.63 268.7"><defs><style>.cls-1{fill:#fff;}</style></defs><path class="cls-1" d="M399.62,163.29c4.72,1.67,6.12,5.21,6,9.93-.18,6.64.05,13.28-.07,19.93-.16,9.55-3.82,17.18-12.54,21.84a3.75,3.75,0,0,0-2,3.94q1,24.69,1.87,49.38c0,.76.3,1.68,0,2.24-.48.85-1.39,2-2.13,2a3,3,0,0,1-2.13-1.94,41.27,41.27,0,0,1-.38-6.21c-.56-14.8-1-29.6-1.72-44.39-.2-4.37,1.22-7.32,5.16-9.47a16.52,16.52,0,0,0,9-14.68c.21-8.37.06-16.75.08-25.13,0-1.51-.57-2.7-2.19-2.69s-2.17,1.26-2.18,2.74q0,9.43,0,18.89c0,.76,0,1.53,0,2.28a6.11,6.11,0,0,1-6.06,5.68,6,6,0,0,1-6-6c-.07-5.47,0-10.94,0-16.41,0-1.45,0-2.9,0-4.36,0-1.29,0-2.77-1.67-2.82s-1.72,1.45-1.72,2.73c0,6.72.13,13.44-.09,20.14a8.81,8.81,0,0,1-2,5,5.12,5.12,0,0,1-6.29,1.2,5.73,5.73,0,0,1-3.73-5.5c0-6.58,0-13.15,0-19.73,0-2.72-.77-4.09-2.3-3.87-2.31.33-2.09,2.18-2.09,3.86,0,7.54,0,15.09,0,22.63,0,7.37,3.27,12.89,9.75,16.41a8,8,0,0,1,4.53,8q-1.74,44.81-3.44,89.63c0,1-.1,1.93-.1,2.9a7.7,7.7,0,0,0,7.59,7.73,7.21,7.21,0,0,0,7.22-7.71c-.29-9.2-.69-18.4-1.05-27.59,0-.7-.07-1.39-.08-2.08,0-1.44.59-2.5,2.1-2.58s2.33,1,2.39,2.51l.84,22c.09,2.35.2,4.7.3,7.05.29,7.3-4.56,12.75-11.41,12.81a11.9,11.9,0,0,1-12.38-12.63c.52-15.08,1.15-30.15,1.73-45.23q.91-23.44,1.81-46.89a3.81,3.81,0,0,0-2.17-3.87c-8.29-4.58-12.22-11.69-12.15-21.12,0-7.05.18-14.12-.06-21.17-.15-4.56,1.16-7.85,5.72-9.35h2.07c4.52,1.51,5.93,4.76,5.74,9.32-.24,5.79-.06,11.6-.06,17.4a4.66,4.66,0,0,0,.13,1.84c.21.48.84,1.13,1.25,1.1a2.25,2.25,0,0,0,1.53-1,3.91,3.91,0,0,0,.16-1.83c0-6.14.18-12.29-.06-18.43-.16-4.26,1.33-7.07,5.43-8.37h1.66c4.1,1.33,5.57,4.2,5.42,8.41-.19,5.65,0,11.32,0,17a11.49,11.49,0,0,0,.09,2.88c.16.58.91,1.38,1.41,1.4s1.13-.78,1.46-1.36a3.8,3.8,0,0,0,.08-1.63c0-5.87.17-11.74,0-17.6-.17-4.51,1.37-7.62,5.76-9.08Z" transform="translate(-50.63 -163.29)"/><path class="cls-1" d="M791.26,303.66c-.27,1.21-.52,2.42-.81,3.62-2.17,9-8.51,14.72-17.72,15.94a31.19,31.19,0,0,1-20-3.78,18.81,18.81,0,0,1-8.1-8.63,6.4,6.4,0,0,1,2.31-8.2,6.6,6.6,0,0,1,8.68.93c.56.61,1,1.31,1.58,1.93,4.07,4.55,9.18,5.63,14.91,4.27a8,8,0,0,0,3.36-1.93c3.44-3.22,2.83-8-1.49-9.84-2.81-1.17-6-1.37-9-2.23-3.76-1.1-7.69-1.95-11.13-3.72-13.39-6.86-12.27-24.21-2.86-31.55,8.39-6.55,17.69-7,27.19-3a39.64,39.64,0,0,1,9.27,6.1,11.9,11.9,0,0,1,3.09,5,6.74,6.74,0,0,1-3.45,8.58c-3.18,1.58-6,.68-8.37-2.69-3.64-5.11-9.21-7.28-15.15-5.76a11,11,0,0,0-3.7,1.76,6.39,6.39,0,0,0-2.56,6.78c.5,2.62,2.47,3.79,4.81,4.27,3.45.7,7,1.09,10.42,1.79,8.49,1.7,14.63,6.3,17.58,14.64a43.63,43.63,0,0,1,1.13,4.81Z" transform="translate(-50.63 -163.29)"/><path class="cls-1" d="M327.77,163.29c3,1.18,6.32,1.89,8.94,3.63,8.29,5.53,11.85,13.89,12.42,23.52.62,10.69-2.24,20.34-11,27.14-3.12,2.42-3.78,4.76-3.62,8.37.9,20.05,1.57,40.12,2.31,60.17q.48,12.76.94,25.53a11.2,11.2,0,0,1-3.42,8.62,11.72,11.72,0,0,1-13.09,2.34c-4.67-2.08-7.29-5.75-7.2-10.91.14-7.68.52-15.36.81-23,.82-21.72,1.61-43.44,2.49-65.16a5.12,5.12,0,0,0-2.54-5c-7.36-5.13-11-12.58-11.85-21.24-.42-4.27.28-8.66.63-13a2,2,0,0,1,2.69-1.89c1.45.33,1.94,1.42,1.67,2.86-.08.41-.18.81-.26,1.22a31.19,31.19,0,0,0,1.78,18.33,21.52,21.52,0,0,0,8.36,10.32,8.16,8.16,0,0,1,4.05,7.84q-1.21,30.7-2.36,61.42c-.34,8.85-.69,17.7-1,26.56-.12,3.66,1.43,6.13,4.49,7.47a7.13,7.13,0,0,0,10.23-6.58c-.08-6.37-.42-12.73-.66-19.09q-1.33-34.86-2.68-69.72c-.12-3,.61-5.55,3.16-7.25,9.28-6.17,12.11-15.24,11.5-25.75a26.22,26.22,0,0,0-6-15.62c-7.25-8.68-18.19-8.62-25.37.1-.35.43-.68.88-1,1.31-.9,1.12-2,1.55-3.24.63a2.14,2.14,0,0,1-.37-3.29,22.49,22.49,0,0,1,12.51-9.08l3-.83Z" transform="translate(-50.63 -163.29)"/><path class="cls-1" d="M417.25,348.58q177.94,0,355.89,0a21.48,21.48,0,0,1,5.14.43,6,6,0,0,1,4.68,6.09,6.14,6.14,0,0,1-4.86,6,22.63,22.63,0,0,1-4.94.39q-100.92,0-201.83,0H62.82a41.14,41.14,0,0,1-5-.15c-3.67-.44-6.1-3.17-6-6.52s2.72-5.91,6.37-6.18c1.38-.1,2.77-.05,4.15-.05Z" transform="translate(-50.63 -163.29)"/><path class="cls-1" d="M471.24,264.79c.49-.47.94-.88,1.38-1.31a27.3,27.3,0,0,1,46.55,19.61c0,11.21,0,22.42,0,33.63,0,5.1-4.39,8.42-8.91,6.85a6.48,6.48,0,0,1-4.4-6.39c-.06-4.91,0-9.82,0-14.73,0-6.44.06-12.88,0-19.31s-3.52-11.24-9.11-13.32a14,14,0,0,0-15.35,3.79A14.71,14.71,0,0,0,477.8,284q0,16,0,32a12.26,12.26,0,0,1-.36,3.48,6.52,6.52,0,0,1-7.09,4.51,6.77,6.77,0,0,1-5.85-6.55c-.1-3.66,0-7.33,0-11,0-7.89,0-15.78,0-23.66a13.83,13.83,0,0,0-27.18-3.5,20.29,20.29,0,0,0-.55,4.92c0,10.59,0,21.18,0,31.77a12.63,12.63,0,0,1-.35,3.48,6.54,6.54,0,0,1-7.07,4.55,6.69,6.69,0,0,1-5.89-6.5c-.1-2.9,0-5.81,0-8.72V283.58c0-11.71,6.41-21.62,16.74-25.91,10.54-4.38,21.88-2,30.33,6.39C470.65,264.3,470.92,264.51,471.24,264.79Z" transform="translate(-50.63 -163.29)"/><path class="cls-1" d="M81.1,228.89c9,.37,17.23,2.62,24.25,8.49a27,27,0,0,1,7.35,9.39,6.52,6.52,0,0,1-2.7,8.75c-3.13,1.71-7.33.89-8.84-2.37-4.54-9.8-18.45-11.93-26-10.13s-12.54,9.28-10.75,16a11.82,11.82,0,0,0,9.24,8.89c5,1.14,10.21,1.71,15.32,2.56s10.09,2.54,14.15,6c12.44,10.55,13.9,24.9,2.58,37.45-6.3,7-14.65,9.27-23.87,8.81-10.4-.51-19.72-3.51-26.77-11.64A30.33,30.33,0,0,1,51.54,306a6.59,6.59,0,0,1,2.68-9.25c3.32-1.73,7-.47,9,3,3.26,5.67,8.53,8.27,14.71,9.33a25.47,25.47,0,0,0,11.52-.29c6-1.72,9.57-5.74,10.44-11.83a9.87,9.87,0,0,0-1.28-5.49c-2.81-5.48-7.92-7.33-13.63-8.16a130.22,130.22,0,0,1-14.9-2.55c-13.37-3.59-21.19-15.89-18.85-29.06,1.93-10.9,10.35-19.29,22.07-21.8C75.85,229.3,78.5,229.2,81.1,228.89Z" transform="translate(-50.63 -163.29)"/><path class="cls-1" d="M541.61,296.14c2.79,7.06,7.49,11.59,14.55,13.35s13.7.23,19.89-3.49a6.15,6.15,0,0,1,8.38,1.31c2.65,3,2,7.24-1.61,9.92a30.21,30.21,0,0,1-13,5.69c-12.71,2.06-24.23-.37-33.27-10.08-9.4-10.1-11.9-22.08-7.27-35S543.35,257.3,557,255.48c20.65-2.76,38,12.34,38.33,33.13.08,4.79-2.54,7.52-7.33,7.52q-21.91,0-43.82,0Zm.35-13.56h38.82c-1.44-7.85-10.13-14.08-19.41-14.11C552.57,268.45,543.34,275.12,542,282.58Z" transform="translate(-50.63 -163.29)"/><path class="cls-1" d="M122.93,289.16a34.08,34.08,0,1,1,33.54,34.39C138,323.38,122.81,307.86,122.93,289.16Zm13.34.26A20.73,20.73,0,1,0,157,268.47,20.9,20.9,0,0,0,136.27,289.42Z" transform="translate(-50.63 -163.29)"/><path class="cls-1" d="M603.2,301.43c.25-6,0-12.08.84-18,2.33-15.93,16.55-28,32.61-28.31a34.08,34.08,0,0,1,34.15,27.05,33,33,0,0,1,.75,6.16q.13,14.12,0,28.23c0,5-4.63,8.26-9.12,6.53-2.66-1-4.18-3.39-4.19-6.75,0-8.65,0-17.3,0-25.94a27.05,27.05,0,0,0-.68-6.16c-2.43-10.26-12.07-16.77-22.82-15.53a20.66,20.66,0,0,0-17.92,20.2c-.07,9.2,0,18.4,0,27.6,0,5.05-4.57,8.29-9.08,6.59a6.62,6.62,0,0,1-4.23-6.51c-.05-5,0-10.1,0-15.15Z" transform="translate(-50.63 -163.29)"/><path class="cls-1" d="M734.38,280c0,6.71.57,13.47-.12,20.11-1.37,13.33-13.47,23.47-27.14,23.47A27.42,27.42,0,0,1,680,300a37.35,37.35,0,0,1-.34-5c0-10.86-.06-21.73,0-32.6,0-5.38,5.29-8.59,9.88-6.09C692,257.75,693,260,693,262.76c0,10.66-.11,21.32.06,32a19.73,19.73,0,0,0,1.58,7.6c2.57,5.75,8.79,8.65,15.17,7.58a14,14,0,0,0,11.42-12.13,29.66,29.66,0,0,0,.19-3.52c0-10.59,0-21.18,0-31.77,0-5.07,4.56-8.24,9.09-6.5a6.66,6.66,0,0,1,4.23,6.53c0,5.81,0,11.62,0,17.44Z" transform="translate(-50.63 -163.29)"/><path class="cls-1" d="M205.3,268.46c-2.56,0-4.83,0-7.1,0-4.21-.1-7.1-2.94-7-6.83s3-6.46,7.14-6.51c2.21,0,4.42,0,6.7,0,.38-2.81.52-5.57,1.14-8.22,2.8-12,9.92-20.32,21.5-24.68,3.86-1.45,7.45.18,8.79,3.82s-.41,7.14-4.23,8.66c-8.69,3.48-14.15,11.7-13.34,20.42,3.89,0,7.81,0,11.72,0a6.56,6.56,0,0,1,6.7,5.35,6.46,6.46,0,0,1-5.91,7.89c-3.52.18-7.06.17-10.58.06-1.77-.06-2.21.56-2.2,2.25.06,14.88,0,29.76,0,44.64a13.27,13.27,0,0,1-.37,3.68,6.58,6.58,0,0,1-7.12,4.5,6.7,6.7,0,0,1-5.81-6.34c-.09-1.24,0-2.49,0-3.74v-45Z" transform="translate(-50.63 -163.29)"/><path class="cls-1" d="M261.63,255.54v-2.65c0-8.16-.05-16.33,0-24.49,0-5.08,4.57-8.21,9.11-6.43a6.69,6.69,0,0,1,4.2,6.54q0,12.26,0,24.49v2.54c3.36,0,6.59-.07,9.81,0,5.13.14,8.26,5,6.13,9.45a6.44,6.44,0,0,1-6.13,3.86c-3.17,0-6.34,0-9.81,0v2.61q0,22.41,0,44.82c0,5.11-4.4,8.47-8.89,6.83a6.3,6.3,0,0,1-4.37-5.53,22.94,22.94,0,0,1-.07-2.49c0-12.79,0-25.59,0-38.39,0-2.53-.2-5.06-.31-7.59l-7.42-.25c-.69,0-1.38,0-2.07,0a6.71,6.71,0,0,1-6.64-6.8,6.61,6.61,0,0,1,6.7-6.52C255,255.49,258.21,255.54,261.63,255.54Z" transform="translate(-50.63 -163.29)"/><path class="cls-1" d="M568.7,413c-4.21,2.68-8.35,3.8-13,2.82a15.74,15.74,0,0,1,2.33-31.09c7.91-.47,15.14,4.92,16.32,12.64a79.94,79.94,0,0,1,.41,11.8,65.73,65.73,0,0,1-.4,10.13c-1,6.56-6.37,11.44-13.23,12.54a15.47,15.47,0,0,1-15.7-7.86,4.81,4.81,0,0,1-.33-3.63c1-2.32,4-2.09,5.4.32,1.87,3.16,4.5,5,8.21,5.15a9.55,9.55,0,0,0,9.94-9.51C568.72,415.33,568.7,414.36,568.7,413Zm-9.53-22.15a9.6,9.6,0,1,0,9.53,9.72A9.55,9.55,0,0,0,559.17,390.83Z" transform="translate(-50.63 -163.29)"/><path class="cls-1" d="M457,394.29c0-6,0-12,0-18.05,0-2.89,1.12-4.09,4-4,4.75.18,9.63-.07,14.21.94,9.83,2.15,16.55,11.7,16,21.7-.59,10.76-8.06,19.49-18.25,20.83a99.67,99.67,0,0,1-12.83.39c-2.11,0-3.14-1.37-3.15-3.78C457,406.32,457,400.3,457,394.29ZM463.26,378v32c2.48,0,4.83.11,7.16,0a15.66,15.66,0,0,0,14.46-13.88c1-7.78-3.25-14.82-10.63-16.81C470.79,378.34,467.06,378.43,463.26,378Z" transform="translate(-50.63 -163.29)"/><path class="cls-1" d="M74.56,373.05c4.62,0,9,1,12.32,4.4a11.61,11.61,0,0,1,2.31,3.41,2.75,2.75,0,0,1-1.36,3.86,2.7,2.7,0,0,1-3.81-1c-2.45-4.29-6.44-5.11-10.85-4.95a6.77,6.77,0,0,0-6.66,5.95c-.21,3,1.91,5.47,5.5,6.22,2.36.5,4.78.7,7.15,1.2,6.23,1.3,10.58,6.41,10.29,12a12.61,12.61,0,0,1-11.63,11.57c-5.93.49-11.46-.63-15.6-5.46A12.41,12.41,0,0,1,60.74,408a2.73,2.73,0,0,1,1.17-3.91,2.65,2.65,0,0,1,3.86.76c2.71,4.43,6.89,5.19,11.52,4.78a6.57,6.57,0,0,0,6.14-5.77c.18-2.42-2.2-5.12-5.34-5.79-2.56-.54-5.21-.71-7.76-1.28C64,395.36,60,390.29,60.45,384.53c.47-6.25,5.15-10.88,11.63-11.47C72.9,373,73.73,373.05,74.56,373.05Z" transform="translate(-50.63 -163.29)"/><path class="cls-1" d="M117.61,403.7c.3,3.1,3.93,6.3,7.68,6.22a24.77,24.77,0,0,0,7.35-1.6c2.07-.71,3.61-.63,4.52.92s.35,3-1.37,4.26c-5.24,3.8-13.68,3.57-19.06-.54a15.77,15.77,0,0,1,10.62-28.23,15.28,15.28,0,0,1,14.1,12,2.19,2.19,0,0,1,.11.4c.47,4.11,1.1,6.82-5.28,6.6C130.06,403.54,123.84,403.7,117.61,403.7ZM135,397.45c-.62-3.74-4.23-6.53-8.44-6.62-4.38-.09-8.24,2.69-9.09,6.62Z" transform="translate(-50.63 -163.29)"/><path class="cls-1" d="M692.79,413.28a16.21,16.21,0,0,1-21.5-2.84,15.69,15.69,0,0,1,16.5-24.8A15.27,15.27,0,0,1,699,400c.14,3.94,0,7.89.06,11.83,0,1.84-.13,3.58-2.25,4.15S693.66,415.08,692.79,413.28Zm.15-12.52a9.33,9.33,0,0,0-9.32-9.58,9.72,9.72,0,0,0-9.59,9.68,9.35,9.35,0,0,0,9.68,9.23A9,9,0,0,0,692.94,400.76Z" transform="translate(-50.63 -163.29)"/><path class="cls-1" d="M291.45,416.76c.46.21.9.45,1.37.63a4.51,4.51,0,0,1,3.06,4.47,4.26,4.26,0,0,1-2.72,4.26,4.54,4.54,0,0,1-5.35-1c-.46-.46-.32-1.53-.45-2.32a17.08,17.08,0,0,1,2.25-.13c.29,0,.54.53.83.56a3.2,3.2,0,0,0,1.87-.17,1.74,1.74,0,0,0,.46-1.61,2.26,2.26,0,0,0-1.5-1.14c-1.1-.16-2.57,1.22-3.24-.49-.39-1-.07-2.28-.07-3.72l-1.64-.45a15.77,15.77,0,0,1-.76-30.16,15.52,15.52,0,0,1,17.73,6,5.29,5.29,0,0,1,.78,3.58,3.06,3.06,0,0,1-2.32,1.85,4.32,4.32,0,0,1-3.06-1.54c-2.17-2.94-4.86-4.65-8.58-4.56a9.59,9.59,0,0,0-4.28,18,9.42,9.42,0,0,0,11.43-1.71c.47-.49.85-1.08,1.3-1.61a3.1,3.1,0,0,1,4.25-.76,3.05,3.05,0,0,1,.72,4.26A14.75,14.75,0,0,1,294,415.8l-2.51.54Z" transform="translate(-50.63 -163.29)"/><path class="cls-1" d="M343.52,384.7a15.73,15.73,0,1,1-15.7,15.71A15.71,15.71,0,0,1,343.52,384.7Zm0,25.33a9.6,9.6,0,1,0-9.54-9.66A9.6,9.6,0,0,0,343.5,410Z" transform="translate(-50.63 -163.29)"/><path class="cls-1" d="M761.79,416.16c-3.21-.23-6.75-1.21-9.23-4.45-1.5-2-1.49-3.56-.08-4.79s3.22-1,4.84.87a6.7,6.7,0,0,0,6.36,2.21,3.22,3.22,0,0,0,3.1-2.86c.22-1.84-1.1-2.6-2.57-3s-3-.56-4.47-.88c-6.69-1.45-10-6.95-7.62-12.78,1.83-4.56,7.26-7,12.72-5.66a12,12,0,0,1,7,4.17c1,1.31,1.56,2.77.72,4.43a3,3,0,0,1-5.33,0,5.89,5.89,0,0,0-7-2.61,3.39,3.39,0,0,0-2.71,3.66c.09,1.86,1.43,2.37,2.93,2.66s2.87.44,4.28.77c5.23,1.22,8.78,5.57,8.18,9.94C772.19,413,768.13,416.22,761.79,416.16Z" transform="translate(-50.63 -163.29)"/><path class="cls-1" d="M392.64,416.16a12.22,12.22,0,0,1-9.11-4.21c-1.7-2.07-1.72-3.85-.16-5.11s3.13-.85,4.82,1a6.69,6.69,0,0,0,6.4,2.1,3.17,3.17,0,0,0,3-3c.14-1.73-1.11-2.46-2.5-2.84s-3.12-.57-4.67-.92c-5.06-1.14-8.11-4.45-8.19-8.83a9.13,9.13,0,0,1,7.37-9.48,12.9,12.9,0,0,1,5.73-.1,22.33,22.33,0,0,1,5.93,2.8,6.28,6.28,0,0,1,2,2.54,3.32,3.32,0,0,1-1.16,4.54c-1.47.89-2.87.41-4.15-1.42a6.18,6.18,0,0,0-7.09-2.45,3.39,3.39,0,0,0-2.6,3.55c0,1.85,1.34,2.43,2.86,2.72s2.87.45,4.28.78c5.26,1.21,8.82,5.49,8.27,9.87C403.05,412.91,399,416.2,392.64,416.16Z" transform="translate(-50.63 -163.29)"/><path class="cls-1" d="M638.79,384.7c1.59,0,2.83,0,4.07,0,2,.07,3.32,1.24,3.39,2.92a3.16,3.16,0,0,1-3.35,3.19c-1.29.05-2.59,0-4.11,0v5.95c0,5.19,0,10.37,0,15.56,0,2.38-1.28,3.86-3.16,3.81s-3-1.49-3-3.79c0-6.36,0-12.72,0-19.08v-2.46c-1.56,0-2.93.05-4.29,0a3,3,0,0,1-3.22-3.06c0-1.75,1.23-2.95,3.23-3,1.31-.06,2.62,0,4.28,0v-4.95c0-2.42,0-4.84,0-7.26a3,3,0,1,1,6.09,0c.07,3.25,0,6.5,0,9.75Z" transform="translate(-50.63 -163.29)"/><path class="cls-1" d="M212.13,404.45c1.13-3,2.11-5.55,3.07-8.11,1.12-3,2.19-6,3.34-8.92.83-2.13,2.41-2.91,4.22-2.19,1.61.64,2.23,2.32,1.47,4.37-3,8-6,16-9,24-.56,1.5-1.51,2.53-3.18,2.49a3.21,3.21,0,0,1-3-2.43c-3-8-6-16-9-24.05-.79-2.14-.11-3.9,1.6-4.48s3.29.18,4.13,2.39C207.83,393,209.89,398.52,212.13,404.45Z" transform="translate(-50.63 -163.29)"/><path class="cls-1" d="M163.21,406a79.25,79.25,0,0,1,.52-8.47,15.44,15.44,0,0,1,14.13-12.8c2.48-.2,4,.77,4.16,2.68s-1.05,3.2-3.7,3.43a9.51,9.51,0,0,0-8.81,9.35c-.07,4,0,8,0,12,0,2.44-1.2,3.92-3.06,3.91s-3.05-1.48-3.07-3.91c0-2.07,0-4.15,0-6.23Z" transform="translate(-50.63 -163.29)"/><path class="cls-1" d="M246,400.43c0-3.88,0-7.75,0-11.62,0-2.45,1.19-3.78,3.18-3.72s2.94,1.37,2.94,3.74q0,11.73,0,23.45c0,2.45-1.17,3.89-3.07,3.87s-3-1.44-3.05-3.9C246,408.31,246,404.37,246,400.43Z" transform="translate(-50.63 -163.29)"/><path class="cls-1" d="M514.3,400.52c0-3.88,0-7.75,0-11.62,0-2.5,1.11-3.82,3.09-3.82s3,1.34,3,3.87q0,11.63,0,23.24c0,2.49-1.1,3.92-3,4s-3.13-1.42-3.14-4C514.29,408.26,514.3,404.39,514.3,400.52Z" transform="translate(-50.63 -163.29)"/><path class="cls-1" d="M722,400.64c0-3.94,0-7.88,0-11.83,0-2.45,1.18-3.78,3.17-3.72s2.94,1.36,3,3.74q0,11.71,0,23.44c0,2.46-1.17,3.9-3.06,3.88s-3-1.43-3.06-3.89C721.94,408.39,722,404.51,722,400.64Z" transform="translate(-50.63 -163.29)"/><path class="cls-1" d="M603.91,400.62c0,3.87,0,7.75,0,11.62,0,2.47-1.14,3.9-3,3.91s-3.09-1.41-3.09-3.86q0-11.71,0-23.44c0-2.48,1.15-3.8,3.14-3.76s3,1.34,3,3.7C603.92,392.74,603.91,396.68,603.91,400.62Z" transform="translate(-50.63 -163.29)"/><path class="cls-1" d="M433.19,413a3.19,3.19,0,0,1-2.95,3.17,3.14,3.14,0,0,1-3.14-3,3.06,3.06,0,0,1,2.93-3.14A3.12,3.12,0,0,1,433.19,413Z" transform="translate(-50.63 -163.29)"/><path class="cls-1" d="M725.1,378.72a3.18,3.18,0,0,1-3.13-3,3.25,3.25,0,0,1,3-3.1,3.14,3.14,0,0,1,3.09,3A3.05,3.05,0,0,1,725.1,378.72Z" transform="translate(-50.63 -163.29)"/><path class="cls-1" d="M600.79,372.67a3.14,3.14,0,0,1,3.1,3,3,3,0,0,1-3,3.08,3.16,3.16,0,0,1-3.13-2.94A3.22,3.22,0,0,1,600.79,372.67Z" transform="translate(-50.63 -163.29)"/><path class="cls-1" d="M520.41,375.67a3,3,0,0,1-3,3.05,3.16,3.16,0,0,1-3.1-3,3.23,3.23,0,0,1,3-3.08A3.14,3.14,0,0,1,520.41,375.67Z" transform="translate(-50.63 -163.29)"/><path class="cls-1" d="M252.12,375.76a3,3,0,0,1-3.08,3,3.15,3.15,0,0,1-3-3.07,3.22,3.22,0,0,1,3.11-3A3.13,3.13,0,0,1,252.12,375.76Z" transform="translate(-50.63 -163.29)"/></svg>