<?xml version="1.0" encoding="utf-8"?>
<!-- Generator: Adobe Illustrator 25.4.1, SVG Export Plug-In . SVG Version: 6.00 Build 0)  -->
<svg version="1.1" id="Camada_1" xmlns="http://www.w3.org/2000/svg" xmlns:xlink="http://www.w3.org/1999/xlink" x="0px" y="0px"
	 viewBox="0 0 1000 1000" style="enable-background:new 0 0 1000 1000;" xml:space="preserve">
<style type="text/css">
	.st0{fill:#BF1823;}
	.st1{fill:#FDFCFC;}
	.st2{fill:#FDFBFB;}
	.st3{fill:#FDFAFB;}
	.st4{fill:#FAF1F2;}
	.st5{fill:#BF1924;}
</style>
<g>
	<g>
		<path class="st0" d="M849.39,988.42c-233.56,0-467.12,0-700.68,0c-1.58-3.77-5.4-2.88-8.22-3.64
			C71.64,966.25,28.1,922.54,9.46,853.79c-0.76-2.8,0.24-6.65-3.59-8.21c0-234.2,0-468.4,0-702.6c3.68-1.21,2.71-4.79,3.37-7.27
			C27.78,66.09,71.69,21.98,141.44,3.58c2.49-0.66,6.05,0.21,7.27-3.42c233.56,0,467.12,0,700.68,0c1.15,3.36,4.33,2.13,6.57,2.7
			c72.08,18.29,117.21,63.43,135.5,135.5c0.57,2.24-0.71,5.43,2.69,6.56c0,233.55,0,467.11,0,700.66c-3.81,1.55-2.87,5.39-3.63,8.19
			C971.84,922.9,928.02,966.64,858.74,985C855.62,985.82,851.5,984.62,849.39,988.42z M202.8,553.38
			c26.75,1.97,52.13-4.74,71.83-18.52c53.2-37.21,55.6-107.65,5.05-148.11c-13.37-10.7-28.72-17.08-45.41-20.05
			c-19.28-3.44-38.83-5.56-57.96-9.64c-17.84-3.81-30.84-14.39-35.41-32.93c-5.57-22.59,10.81-47.75,35.69-55.43
			c34.82-10.75,75.43,4.11,95.19,34.83c7.48,11.63,21.25,15.49,32.72,9.18c11.47-6.32,15.41-19.79,9.33-32.54
			c-5.62-11.77-13.29-22.1-23.33-30.4c-40.37-33.42-86.47-40.99-134.96-24.34c-61.12,20.99-83.03,95.3-44.62,144.57
			c17.7,22.7,42.04,32.9,69.56,37.41c18.05,2.96,36.57,3.37,54.08,9.26c18.45,6.2,33.72,24.77,33.89,40.69
			c0.19,18.01-14.54,37.48-33.59,44.24c-3.02,1.07-6.15,1.95-9.3,2.49c-20.17,3.48-39.79,1.23-58.6-6.71
			c-12.78-5.39-22.84-14.24-29.98-26.24c-8.03-13.49-21.04-17.78-33.4-10.97c-12.45,6.85-16.07,21.55-8.28,35.1
			c9.66,16.8,23.07,29.98,39.78,39.83C156.41,547.67,179.77,552.62,202.8,553.38z M221.39,779.6c-1.7-4.56-2.73-7.23-3.7-9.93
			c-17.65-49.26-35.31-98.52-52.89-147.8c-3.21-8.98-9.28-14.05-18.84-13.17c-9.55,0.88-14.76,7.03-16.36,16.32
			c-1.09,6.33-2.07,12.68-3.13,19.01C116,706.11,105.49,768.19,95.12,830.29c-2.19,13.1,3.41,22.52,14.04,24.67
			c9.53,1.92,18.03-5.59,20.43-18.27c4.59-24.31,9.03-48.65,13.61-72.96c3.8-20.18,7.72-40.33,11.58-60.49
			c2.68,2.65,3.76,5.25,4.67,7.91c14.34,41.92,28.79,83.81,42.9,125.81c3.14,9.33,8.13,16.98,18.26,17.3
			c10.3,0.33,15.45-7.3,18.8-16.51c11.43-31.38,23.17-62.65,34.82-93.94c5.79-15.55,11.65-31.07,17.47-46.6
			c6.17,21.75,10.67,43.31,15.09,64.88c5.23,25.49,10.28,51.02,15.63,76.48c2.04,9.68,9.79,16.5,17.69,16.38
			c7.29-0.11,15.35-7.24,16.9-14.93c0.78-3.89-0.01-7.67-0.78-11.46c-6.1-29.89-12.18-59.78-18.26-89.67
			c-7.74-38.08-15.43-76.18-23.26-114.25c-2.49-12.11-11.85-18.64-22.09-15.82c-7.23,2-10.87,7.22-13.34,13.97
			c-13.22,36.19-26.6,72.32-39.95,108.47C233.59,746.82,227.79,762.37,221.39,779.6z M471.18,556.24
			c68.01,0.04,123.03-54.54,123.08-122.09c0.05-67.67-54.93-122.81-122.5-122.85c-67.24-0.04-122.32,54.74-122.45,121.8
			C349.17,501.29,403.52,556.2,471.18,556.24z M407.34,783.68c39.36,0,77.93,0.03,116.49-0.02c15.33-0.02,21.75-6.75,21.13-21.88
			c-1.98-48.31-39.99-83.31-89.84-82.73c-46.81,0.55-85.51,38.54-86.14,85.26c-0.79,58.28,49.9,97.5,104.48,90.06
			c14.12-1.93,27.32-7.27,38.9-15.85c9.16-6.79,11.29-16.21,5.89-24.33c-5.62-8.46-14.53-10.18-24.42-4.49
			c-5.89,3.39-12.04,6.02-18.61,7.77C445.29,825.46,417.63,812.17,407.34,783.68z M791.47,402.22c-0.02,0-0.03,0-0.05,0
			c-1.49,39.86-3.13,79.71-4.4,119.58c-0.65,20.35,13.63,34.86,33.13,34.45c18.42-0.39,31.09-15.05,30.28-34.99
			c-0.46-11.25-0.85-22.5-1.29-33.75c-0.53-13.82-1.12-27.64-1.6-41.46c-0.15-4.41-1.75-7.95-6.51-7.85
			c-4.86,0.1-6.19,3.85-5.99,8.21c0.09,1.93,0.2,3.86,0.27,5.78c0.87,23.79,1.72,47.58,2.59,71.36c0.3,8.19-3.07,14.43-10.25,18.26
			c-6.54,3.49-13.09,2.61-19.23-1.3c-8.11-5.17-9.34-12.97-8.98-21.89c3.16-78.75,6.01-157.5,9.26-236.25
			c0.49-11.89-3.14-20.11-13.93-26.05c-15.59-8.58-23.47-22.62-23.76-40.4c-0.33-20.58-0.12-41.18-0.09-61.76
			c0.01-4.17-0.42-9.38,5.52-9.32c5.94,0.06,5.36,5.29,5.37,9.45c0.03,16.41-0.06,32.81,0.04,49.22
			c0.07,11.97,6.71,19.45,16.75,19.2c9.72-0.24,15.86-7.42,15.95-19.08c0.12-16.73-0.02-33.46,0.09-50.18
			c0.02-3.27-1.34-8.31,3.72-8.42c5.82-0.12,4.27,5.31,4.3,8.8c0.15,16.73-0.04,33.46,0.11,50.18c0.1,11.43,6.59,18.66,16.34,18.69
			c9.76,0.03,16.22-7.17,16.32-18.63c0.14-16.41,0-32.81,0.06-49.22c0.02-4.4-0.85-10.16,5.79-9.99c5.85,0.15,5.18,5.48,5.18,9.62
			c0.02,20.27,0.18,40.54-0.06,60.8c-0.22,18.17-8.14,32.44-24.07,41.22c-10.4,5.73-14.3,13.64-13.76,25.19
			c1.73,36.95,3.01,73.92,4.46,110.88c0.29,7.39,0.48,14.79,0.87,22.18c0.22,4.09,2.37,6.8,6.7,6.5c3.79-0.27,5.55-2.9,5.6-6.6
			c0.03-2.25-0.11-4.5-0.19-6.75c-1.52-42.11-2.9-84.23-4.7-126.33c-0.3-7.04,1.9-11.09,8.03-14.67
			c19.28-11.27,29.2-28.62,29.67-50.87c0.45-21.22,0.21-42.46,0.09-63.69c-0.07-12.18-7.71-20.78-18.07-20.85
			c-10.38-0.07-17.93,8.46-18.03,20.77c-0.14,16.41,0.02,32.81-0.09,49.22c-0.02,3.29,1.03,8.28-4.04,8.13
			c-4.27-0.13-3.29-4.77-3.3-7.83c-0.06-16.41,0.04-32.81-0.05-49.22c-0.07-12.44-6.69-20.8-16.43-21.07
			c-10.23-0.28-17.18,8.14-17.25,21.15c-0.09,16.08,0.05,32.17-0.08,48.25c-0.03,3.29,1.35,8.66-3.33,8.72
			c-5.57,0.06-3.81-5.66-3.85-9.12c-0.18-16.08,0.07-32.17-0.13-48.25c-0.15-12.28-7.86-20.83-18.16-20.74
			c-10.51,0.09-17.82,8.48-17.88,20.91c-0.1,21.23-0.24,42.47,0.05,63.69c0.3,21.97,10.04,39.09,28.81,50.34
			c6.76,4.05,9.17,8.41,8.82,16.2C794.26,322.49,792.96,362.36,791.47,402.22z M565.65,795.77c0,14.45-0.06,26.35,0.02,38.25
			c0.08,12.68,7.27,21.33,17.46,21.16c10.14-0.17,17.13-8.8,17.18-21.54c0.08-21.55,0.1-43.1,0-64.65
			c-0.05-11.23,2.42-21.67,8.63-31.11c12.8-19.44,36.87-28.52,59.07-22.33c23.54,6.57,38.93,25.85,39.56,51.04
			c0.57,22.82,0.08,45.67,0.21,68.51c0.07,11.47,7.02,19.73,16.5,20.07c9.83,0.36,17.82-8.06,17.92-19.77
			c0.21-23.8,0.73-47.63-0.15-71.4c-1.68-45.57-36.7-81.89-80.66-84.78c-47.53-3.12-86.4,27.16-94.58,73.83
			C564.19,768.05,566.38,783.23,565.65,795.77z M905.33,746.56c0-17.98,0.04-32.44-0.01-46.9c-0.05-12.46-7.1-20.58-17.8-20.63
			c-11.1-0.05-17.39,7.25-17.43,20.61c-0.08,26.03-0.04,52.05-0.01,78.08c0.01,6.13-0.31,12.2-2.41,18.04
			c-5.82,16.11-21.87,25.83-38.8,23.52c-17.87-2.44-31.03-16.31-31.37-34.7c-0.53-28.59-0.13-57.19-0.26-85.79
			c-0.06-12.46-6.65-19.76-17.39-19.75c-10.67,0.01-17.2,7.39-17.23,19.89c-0.08,28.28-0.16,56.55,0.02,84.83
			c0.23,35.88,26.56,65.64,62.53,71.01c32,4.78,65.76-17.85,76.53-50.48C908.37,784.05,903.52,763.41,905.33,746.56z M683.42,405.41
			c-0.02,0-0.05,0-0.07,0c0.33,7.39,0.71,14.78,0.98,22.17c1.18,31.82,2.47,63.64,3.43,95.47c0.37,12.11-7.25,20.53-17.94,20.83
			c-11.62,0.33-20.26-8.49-20.38-20.88c-0.02-1.93,0.18-3.85,0.26-5.78c2.85-75.21,5.62-150.43,8.66-225.63
			c0.42-10.35-2.84-17.94-11.74-23.53c-9.83-6.17-16.35-15.35-20.85-25.93c-6.88-16.19-8.23-32.94-4.62-50.11
			c0.96-4.57,0.69-8.86-4.53-10.04c-4.8-1.09-6.58,2.67-7.77,6.68c-9.05,30.37,4.16,70.7,29.79,89.09c5.42,3.89,7.29,7.96,7,14.44
			c-1.54,34.38-2.7,68.78-3.98,103.17c-1.57,41.78-3.24,83.57-4.65,125.36c-0.71,20.94,12.54,35.36,32.02,35.47
			c19.41,0.11,32.01-14.16,31.49-35.69c-0.08-3.22-0.26-6.43-0.38-9.64c-2.81-72.96-5.6-145.92-8.47-218.88
			c-0.2-5.04,0.09-9.32,4.91-12.6c23.51-16.04,33.2-39.54,34.08-66.91c0.85-26.26-7.01-49.68-27.42-67.34
			c-25.16-21.78-61.93-16.27-79.95,11.42c-2.34,3.59-3.72,7.07,0.27,10.17c4.12,3.2,6.98,0.59,9.78-2.53
			c3.43-3.81,6.79-7.81,10.81-10.93c15.72-12.21,35.18-11.69,50.6,0.96c32.6,26.74,31.07,88.95-3.22,113.24
			c-9.19,6.51-12.92,14.03-12.4,25.14C680.86,330.18,682.03,367.8,683.42,405.41z"/>
		<path class="st1" d="M994.16,144.92c-3.4-1.14-2.12-4.32-2.69-6.56c-18.29-72.07-63.43-117.21-135.5-135.5
			c-2.24-0.57-5.42,0.66-6.57-2.7c46.33,0,92.65,0.08,138.98-0.13c4.83-0.02,5.94,1.09,5.92,5.92
			C994.08,52.27,994.16,98.6,994.16,144.92z"/>
		<path class="st1" d="M849.39,988.42c2.11-3.8,6.23-2.6,9.35-3.42c69.27-18.35,113.1-62.1,131.79-131.23
			c0.76-2.8-0.19-6.64,3.63-8.19c0,45.68-0.09,91.36,0.13,137.04c0.02,4.83-1.09,5.94-5.92,5.92
			C942.04,988.34,895.72,988.42,849.39,988.42z"/>
		<path class="st1" d="M148.71,0.15c-1.22,3.63-4.78,2.76-7.27,3.42C71.69,21.98,27.78,66.09,9.24,135.72
			c-0.66,2.48,0.31,6.06-3.37,7.27c0-45.53,0.11-91.06-0.15-136.58C5.68,1.07,6.78-0.03,12.12,0C57.65,0.27,103.18,0.15,148.71,0.15
			z"/>
		<path class="st1" d="M5.87,845.58c3.83,1.55,2.83,5.41,3.59,8.21c18.64,68.75,62.19,112.46,131.03,130.99
			c2.81,0.76,6.64-0.13,8.22,3.64c-45.53,0-91.06-0.11-136.59,0.15c-5.34,0.03-6.44-1.07-6.41-6.41
			C5.98,936.64,5.87,891.11,5.87,845.58z"/>
		<path class="st2" d="M202.8,553.38c-23.03-0.76-46.39-5.71-67.74-18.29c-16.71-9.84-30.11-23.02-39.78-39.83
			c-7.79-13.55-4.16-28.25,8.28-35.1c12.36-6.81,25.37-2.52,33.4,10.97c7.14,12,17.2,20.84,29.98,26.24
			c18.81,7.94,38.43,10.18,58.6,6.71c3.15-0.54,6.28-1.42,9.3-2.49c19.04-6.76,33.77-26.23,33.59-44.24
			c-0.16-15.91-15.43-34.49-33.89-40.69c-17.52-5.89-36.03-6.3-54.08-9.26c-27.52-4.51-51.86-14.71-69.56-37.41
			c-38.41-49.27-16.49-123.59,44.62-144.57c48.49-16.65,94.59-9.08,134.96,24.34c10.04,8.31,17.71,18.64,23.33,30.4
			c6.09,12.75,2.15,26.22-9.33,32.54c-11.47,6.32-25.24,2.45-32.72-9.18c-19.76-30.71-60.37-45.57-95.19-34.83
			c-24.88,7.68-41.26,32.84-35.69,55.43c4.57,18.54,17.57,29.12,35.41,32.93c19.13,4.08,38.68,6.2,57.96,9.64
			c16.69,2.98,32.04,9.36,45.41,20.05c50.55,40.45,48.15,110.89-5.05,148.11C254.94,548.64,229.55,555.35,202.8,553.38z"/>
		<path class="st3" d="M221.39,779.6c6.4-17.23,12.2-32.78,17.95-48.35c13.35-36.14,26.73-72.27,39.95-108.47
			c2.47-6.75,6.11-11.98,13.34-13.97c10.24-2.83,19.6,3.7,22.09,15.82c7.83,38.07,15.51,76.16,23.26,114.25
			c6.08,29.89,12.16,59.79,18.26,89.67c0.77,3.79,1.56,7.57,0.78,11.46c-1.55,7.69-9.61,14.81-16.9,14.93
			c-7.9,0.12-15.65-6.7-17.69-16.38c-5.36-25.46-10.41-50.99-15.63-76.48c-4.42-21.58-8.92-43.14-15.09-64.88
			c-5.83,15.53-11.69,31.05-17.47,46.6c-11.65,31.3-23.39,62.57-34.82,93.94c-3.35,9.2-8.5,16.84-18.8,16.51
			c-10.13-0.32-15.13-7.97-18.26-17.3c-14.11-42-28.55-83.89-42.9-125.81c-0.91-2.66-1.98-5.26-4.67-7.91
			c-3.87,20.16-7.78,40.32-11.58,60.49c-4.58,24.31-9.02,48.65-13.61,72.96c-2.39,12.68-10.9,20.19-20.43,18.27
			c-10.63-2.14-16.22-11.57-14.04-24.67c10.37-62.1,20.88-124.17,31.34-186.26c1.07-6.33,2.04-12.68,3.13-19.01
			c1.6-9.28,6.81-15.44,16.36-16.32c9.56-0.88,15.64,4.18,18.84,13.17c17.58,49.29,35.25,98.54,52.89,147.8
			C218.66,772.37,219.69,775.04,221.39,779.6z"/>
		<path class="st2" d="M471.18,556.24c-67.66-0.04-122-54.95-121.87-123.14c0.13-67.06,55.21-121.84,122.45-121.8
			c67.58,0.04,122.55,55.18,122.5,122.85C594.21,501.7,539.19,556.28,471.18,556.24z M471.83,508.04
			c40.68-0.11,74.4-34.08,74.03-74.6c-0.36-40.32-33.66-73.56-73.94-73.79c-40.68-0.24-74.29,33.3-74.36,74.19
			C397.49,474.64,431.02,508.14,471.83,508.04z"/>
		<path class="st3" d="M407.34,783.68c10.29,28.48,37.95,41.78,67.89,33.8c6.57-1.75,12.72-4.38,18.61-7.77
			c9.89-5.69,18.8-3.97,24.42,4.49c5.4,8.12,3.27,17.54-5.89,24.33c-11.58,8.58-24.78,13.92-38.9,15.85
			c-54.58,7.45-105.27-31.78-104.48-90.06c0.63-46.71,39.34-84.71,86.14-85.26c49.85-0.58,87.86,34.42,89.84,82.73
			c0.62,15.12-5.79,21.86-21.13,21.88C485.27,783.72,446.7,783.68,407.34,783.68z M456.82,748.95c14.11,0,28.25-0.47,42.33,0.16
			c9.34,0.42,8.51-3.04,5-9.1c-10.73-18.52-27.33-26.51-48.06-26.2c-21.06,0.32-36.37,10.64-46.71,28.8
			c-2.99,5.25-1.28,6.48,4.14,6.4C427.95,748.81,442.39,748.95,456.82,748.95z"/>
		<path class="st4" d="M791.47,402.22c1.49-39.86,2.79-79.73,4.62-119.57c0.36-7.79-2.05-12.15-8.82-16.2
			c-18.77-11.24-28.51-28.36-28.81-50.34c-0.29-21.23-0.15-42.46-0.05-63.69c0.06-12.43,7.38-20.82,17.88-20.91
			c10.3-0.09,18.01,8.46,18.16,20.74c0.2,16.08-0.05,32.17,0.13,48.25c0.04,3.46-1.72,9.18,3.85,9.12c4.67-0.05,3.3-5.43,3.33-8.72
			c0.12-16.08-0.01-32.17,0.08-48.25c0.07-13.01,7.03-21.44,17.25-21.15c9.74,0.27,16.36,8.64,16.43,21.07
			c0.09,16.41-0.01,32.81,0.05,49.22c0.01,3.06-0.98,7.7,3.3,7.83c5.07,0.15,4.02-4.84,4.04-8.13c0.11-16.41-0.05-32.81,0.09-49.22
			c0.1-12.31,7.65-20.84,18.03-20.77c10.37,0.07,18,8.66,18.07,20.85c0.12,21.23,0.36,42.47-0.09,63.69
			c-0.47,22.25-10.39,39.6-29.67,50.87c-6.13,3.58-8.33,7.63-8.03,14.67c1.8,42.1,3.18,84.22,4.7,126.33
			c0.08,2.25,0.21,4.5,0.19,6.75c-0.04,3.71-1.8,6.33-5.6,6.6c-4.34,0.31-6.48-2.41-6.7-6.5c-0.4-7.39-0.58-14.79-0.87-22.18
			c-1.45-36.96-2.73-73.93-4.46-110.88c-0.54-11.55,3.36-19.45,13.76-25.19c15.93-8.78,23.86-23.05,24.07-41.22
			c0.24-20.26,0.09-40.53,0.06-60.8c0-4.14,0.67-9.47-5.18-9.62c-6.64-0.17-5.77,5.58-5.79,9.99c-0.06,16.41,0.08,32.81-0.06,49.22
			c-0.1,11.46-6.56,18.66-16.32,18.63c-9.74-0.03-16.24-7.26-16.34-18.69c-0.15-16.73,0.04-33.46-0.11-50.18
			c-0.03-3.49,1.52-8.93-4.3-8.8c-5.06,0.11-3.69,5.15-3.72,8.42c-0.11,16.73,0.04,33.46-0.09,50.18
			c-0.09,11.66-6.23,18.84-15.95,19.08c-10.04,0.25-16.68-7.23-16.75-19.2c-0.1-16.41-0.01-32.81-0.04-49.22
			c-0.01-4.16,0.58-9.39-5.37-9.45c-5.95-0.06-5.52,5.15-5.52,9.32c-0.03,20.59-0.24,41.18,0.09,61.76
			c0.29,17.78,8.17,31.82,23.76,40.4c10.8,5.94,14.43,14.15,13.93,26.05c-3.26,78.74-6.1,157.5-9.26,236.25
			c-0.36,8.92,0.87,16.72,8.98,21.89c6.14,3.91,12.69,4.79,19.23,1.3c7.17-3.83,10.55-10.08,10.25-18.26
			c-0.87-23.79-1.73-47.58-2.59-71.36c-0.07-1.93-0.18-3.86-0.27-5.78c-0.2-4.36,1.14-8.11,5.99-8.21c4.76-0.1,6.36,3.44,6.51,7.85
			c0.48,13.82,1.06,27.64,1.6,41.46c0.43,11.25,0.83,22.5,1.29,33.75c0.82,19.94-11.85,34.6-30.28,34.99
			c-19.5,0.41-33.78-14.1-33.13-34.45c1.27-39.87,2.91-79.72,4.4-119.58C791.44,402.22,791.46,402.22,791.47,402.22z"/>
		<path class="st3" d="M565.65,795.77c0.72-12.53-1.46-27.72,1.17-42.72c8.17-46.67,47.05-76.95,94.58-73.83
			c43.97,2.89,78.98,39.21,80.66,84.78c0.88,23.77,0.35,47.6,0.15,71.4c-0.1,11.71-8.09,20.13-17.92,19.77
			c-9.48-0.35-16.44-8.6-16.5-20.07c-0.13-22.84,0.36-45.69-0.21-68.51c-0.63-25.19-16.02-44.47-39.56-51.04
			c-22.2-6.19-46.27,2.89-59.07,22.33c-6.21,9.43-8.69,19.88-8.63,31.11c0.1,21.55,0.08,43.1,0,64.65
			c-0.05,12.74-7.04,21.37-17.18,21.54c-10.19,0.17-17.38-8.48-17.46-21.16C565.59,822.12,565.65,810.22,565.65,795.77z"/>
		<path class="st3" d="M905.33,746.56c-1.82,16.85,3.03,37.49-3.64,57.72c-10.77,32.63-44.54,55.26-76.53,50.48
			c-35.97-5.37-62.3-35.13-62.53-71.01c-0.18-28.28-0.09-56.55-0.02-84.83c0.03-12.5,6.56-19.88,17.23-19.89
			c10.75-0.01,17.34,7.29,17.39,19.75c0.13,28.6-0.27,57.2,0.26,85.79c0.34,18.4,13.5,32.26,31.37,34.7
			c16.93,2.31,32.99-7.41,38.8-23.52c2.11-5.83,2.42-11.91,2.41-18.04c-0.02-26.03-0.06-52.05,0.01-78.08
			c0.04-13.36,6.33-20.66,17.43-20.61c10.69,0.05,17.75,8.17,17.8,20.63C905.37,714.12,905.33,728.58,905.33,746.56z"/>
		<path class="st4" d="M683.42,405.41c-1.39-37.61-2.56-75.22-4.31-112.81c-0.52-11.11,3.21-18.63,12.4-25.14
			c34.29-24.29,35.81-86.5,3.22-113.24c-15.42-12.65-34.88-13.17-50.6-0.96c-4.02,3.12-7.38,7.12-10.81,10.93
			c-2.81,3.12-5.66,5.73-9.78,2.53c-3.99-3.1-2.61-6.57-0.27-10.17c18.01-27.69,54.78-33.2,79.95-11.42
			c20.41,17.66,28.27,41.09,27.42,67.34c-0.88,27.37-10.57,50.87-34.08,66.91c-4.82,3.29-5.11,7.56-4.91,12.6
			c2.87,72.96,5.66,145.92,8.47,218.88c0.12,3.21,0.3,6.43,0.38,9.64c0.52,21.53-12.08,35.8-31.49,35.69
			c-19.48-0.11-32.73-14.53-32.02-35.47c1.41-41.79,3.09-83.57,4.65-125.36c1.29-34.39,2.45-68.79,3.98-103.17
			c0.29-6.48-1.58-10.55-7-14.44c-25.63-18.4-38.83-58.73-29.79-89.09c1.2-4.02,2.97-7.77,7.77-6.68c5.21,1.18,5.49,5.47,4.53,10.04
			c-3.61,17.16-2.26,33.92,4.62,50.11c4.5,10.58,11.02,19.75,20.85,25.93c8.9,5.59,12.15,13.18,11.74,23.53
			c-3.04,75.2-5.8,150.42-8.66,225.63c-0.07,1.93-0.28,3.86-0.26,5.78c0.13,12.39,8.76,21.21,20.38,20.88
			c10.69-0.3,18.31-8.73,17.94-20.83c-0.96-31.83-2.25-63.65-3.43-95.47c-0.27-7.39-0.65-14.78-0.98-22.17
			C683.37,405.41,683.4,405.41,683.42,405.41z"/>
		<path class="st5" d="M471.83,508.04c-40.81,0.11-74.34-33.4-74.27-74.21c0.07-40.89,33.69-74.42,74.36-74.19
			c40.28,0.23,73.58,33.47,73.94,73.79C546.23,473.95,512.51,507.93,471.83,508.04z"/>
		<path class="st5" d="M456.82,748.95c-14.43,0-28.87-0.14-43.3,0.07c-5.42,0.08-7.13-1.15-4.14-6.4
			c10.34-18.17,25.65-28.48,46.71-28.8c20.74-0.31,37.34,7.68,48.06,26.2c3.51,6.06,4.34,9.51-5,9.1
			C485.07,748.49,470.94,748.95,456.82,748.95z"/>
	</g>
</g>
</svg>
